<svg width="160" height="120" viewBox="0 0 160 120" fill="none" xmlns="http://www.w3.org/2000/svg">
<path d="M79.937 116C114.144 116 141.874 114.38 141.874 112.383C141.874 110.385 114.144 108.766 79.937 108.766C45.7301 108.766 18 110.385 18 112.383C18 114.38 45.7301 116 79.937 116Z" fill="#667085"/>
<path d="M113.98 48.6793L115.357 50.7832L117.402 50.3619L115.859 47.7441L113.98 48.6793Z" fill="#FFC3BD"/>
<path d="M117.884 30.6406C118.173 30.9939 118.418 31.308 118.667 31.65C118.914 31.9858 119.156 32.3235 119.392 32.6658C119.864 33.351 120.314 34.0515 120.735 34.7752C121.154 35.5016 121.564 36.2347 121.922 37.009C122.111 37.3875 122.275 37.7888 122.448 38.1799C122.604 38.587 122.767 38.9833 122.9 39.4079L123.003 39.7213L123.055 39.8803C123.083 39.9756 123.113 40.0759 123.131 40.1682C123.212 40.5458 123.221 40.8874 123.204 41.1948C123.161 41.8078 123.016 42.3045 122.856 42.7637C122.531 43.6762 122.096 44.4353 121.644 45.1652C120.719 46.6101 119.677 47.8682 118.497 49.0627L117.096 47.9543C117.863 46.6169 118.622 45.2219 119.226 43.8602C119.53 43.183 119.784 42.4914 119.93 41.8754C120.002 41.571 120.031 41.2806 120.016 41.094C120.01 41.0024 119.991 40.9418 119.98 40.9308C119.978 40.925 119.974 40.9305 119.974 40.9305L119.921 40.8088L119.816 40.5607C119.253 39.2382 118.49 37.9235 117.679 36.6414C117.272 35.9986 116.839 35.3665 116.404 34.7361C115.976 34.1117 115.5 33.4731 115.073 32.9006L117.884 30.6406Z" fill="#FFC3BD"/>
<path d="M117.094 29.0454C119.324 29.5567 121.881 35.6356 121.881 35.6356L117.403 38.7048C117.403 38.7048 115.706 36.3315 114.445 33.6761C113.123 30.8938 114.814 28.5227 117.094 29.0454Z" fill="#000AFF"/>
<path opacity="0.3" d="M117.094 29.0454C119.324 29.5567 121.881 35.6356 121.881 35.6356L117.403 38.7048C117.403 38.7048 115.706 36.3315 114.445 33.6761C113.123 30.8938 114.814 28.5227 117.094 29.0454Z" fill="white"/>
<path d="M115.496 32.9219L117.614 38.5594L117.404 38.7051C117.404 38.7051 116.487 37.4195 115.496 35.6838V32.9219Z" fill="#000AFF"/>
<path opacity="0.2" d="M115.496 32.9219L117.614 38.5594L117.404 38.7051C117.404 38.7051 116.487 37.4195 115.496 35.6838V32.9219Z" fill="white"/>
<path d="M109.842 110.243H107.463L107.226 104.734H109.605L109.842 110.243Z" fill="#FFC3BD"/>
<path d="M124.125 110.243H121.746L120.55 104.734H122.929L124.125 110.243Z" fill="#FFC3BD"/>
<path d="M107.226 104.736L107.348 107.576H109.728L109.606 104.736H107.226Z" fill="#CC9C97"/>
<path d="M122.93 104.736H120.55L121.168 107.576H123.548L122.93 104.736Z" fill="#CC9C97"/>
<path d="M108.139 49.7305C108.139 49.7305 110.839 67.9107 112.321 74.7217C113.944 82.1804 120.059 107.025 120.059 107.025H124.416C124.416 107.025 120.384 82.7824 119.458 75.3979C118.453 67.3832 116.349 49.7305 116.349 49.7305H108.139Z" fill="#263238"/>
<path opacity="0.4" d="M109.846 56.2079C112.967 56.8199 112.637 68.4615 112.261 74.449C111.361 70.2166 110.043 62.0724 109.143 56.2921C109.35 56.1885 109.583 56.1561 109.846 56.2079Z" fill="black"/>
<path d="M103.625 49.7305C103.625 49.7305 103.298 67.5172 103.556 74.7719C103.826 82.3177 106.461 107.025 106.461 107.025H110.491C110.491 107.025 110.639 82.7587 110.818 75.348C111.014 67.2689 111.989 49.7308 111.989 49.7308H103.625V49.7305Z" fill="#263238"/>
<path d="M117.599 47.4434L115.859 47.7429L117.402 50.3607C117.402 50.3607 118.615 49.7781 118.833 48.6467L117.599 47.4434Z" fill="#FFC3BD"/>
<path d="M120.792 110.365C120.548 110.365 120.313 110.328 120.221 110.208C120.182 110.158 120.151 110.071 120.223 109.941C120.26 109.873 120.32 109.829 120.399 109.81C120.749 109.729 121.404 110.178 121.432 110.197C121.45 110.21 121.459 110.232 121.455 110.254C121.451 110.276 121.434 110.293 121.413 110.298C121.291 110.327 121.038 110.365 120.792 110.365ZM120.495 109.912C120.47 109.912 120.447 109.914 120.425 109.919C120.377 109.931 120.343 109.956 120.321 109.995C120.271 110.088 120.3 110.127 120.31 110.14C120.412 110.273 120.898 110.275 121.253 110.215C121.048 110.089 120.711 109.912 120.495 109.912Z" fill="#000AFF"/>
<path d="M121.4 110.3C121.391 110.3 121.381 110.297 121.373 110.293C121.127 110.159 120.651 109.638 120.701 109.373C120.71 109.325 120.746 109.242 120.88 109.225C120.966 109.215 121.048 109.238 121.121 109.297C121.397 109.523 121.453 110.21 121.456 110.239C121.458 110.259 121.448 110.279 121.43 110.29C121.421 110.297 121.41 110.3 121.4 110.3ZM120.919 109.336C120.911 109.336 120.903 109.336 120.894 109.337C120.821 109.346 120.815 109.38 120.812 109.394C120.782 109.551 121.086 109.945 121.33 110.13C121.303 109.93 121.227 109.53 121.049 109.385C121.008 109.352 120.966 109.336 120.919 109.336Z" fill="#000AFF"/>
<path d="M106.507 110.366C106.202 110.366 105.907 110.324 105.808 110.187C105.774 110.139 105.746 110.057 105.813 109.94C105.85 109.875 105.91 109.83 105.992 109.808C106.386 109.703 107.219 110.175 107.254 110.195C107.274 110.206 107.285 110.229 107.281 110.253C107.278 110.276 107.26 110.294 107.237 110.299C107.085 110.329 106.791 110.366 106.507 110.366ZM106.13 109.904C106.09 109.904 106.054 109.908 106.021 109.917C105.969 109.931 105.932 109.957 105.91 109.996C105.871 110.066 105.885 110.1 105.899 110.12C106.007 110.269 106.608 110.278 107.054 110.215C106.833 110.102 106.407 109.904 106.13 109.904Z" fill="#000AFF"/>
<path d="M107.226 110.299C107.218 110.299 107.21 110.298 107.203 110.294C106.916 110.166 106.347 109.652 106.39 109.382C106.401 109.319 106.445 109.24 106.6 109.225C106.714 109.214 106.82 109.246 106.913 109.321C107.215 109.57 107.279 110.211 107.282 110.238C107.284 110.257 107.275 110.277 107.259 110.289C107.249 110.296 107.237 110.299 107.226 110.299ZM106.645 109.335C106.634 109.335 106.623 109.336 106.612 109.337C106.51 109.347 106.504 109.387 106.502 109.4C106.476 109.562 106.862 109.966 107.155 110.142C107.125 109.955 107.04 109.571 106.841 109.408C106.781 109.359 106.717 109.335 106.645 109.335Z" fill="#000AFF"/>
<path d="M121.577 109.969H124.25C124.347 109.969 124.431 110.036 124.452 110.131L124.922 112.246C124.971 112.465 124.798 112.673 124.574 112.669C123.641 112.653 123.187 112.598 122.012 112.598C121.289 112.598 119.799 112.673 118.8 112.673C117.824 112.673 117.672 111.686 118.08 111.596C119.913 111.195 120.603 110.642 121.19 110.115C121.297 110.02 121.435 109.969 121.577 109.969Z" fill="#263238"/>
<path d="M107.478 109.969H110.076C110.173 109.969 110.258 110.036 110.279 110.131L110.749 112.246C110.797 112.465 110.631 112.673 110.407 112.669C109.469 112.653 108.115 112.598 106.937 112.598C105.56 112.598 104.371 112.673 102.756 112.673C101.779 112.673 101.508 111.686 101.917 111.597C103.778 111.19 105.297 111.146 106.905 110.154C107.08 110.046 107.273 109.969 107.478 109.969Z" fill="#263238"/>
<path d="M104.083 33.9118C103.139 35.3023 102.163 36.6038 101.114 37.8913C100.066 39.172 98.9618 40.4191 97.7445 41.6072L97.2766 42.0479L97.1597 42.158L97.0762 42.2341L96.957 42.3368C96.797 42.4647 96.6312 42.5761 96.4693 42.6635C95.8132 43.0181 95.2281 43.1078 94.7038 43.1574C93.6556 43.2393 92.7654 43.0981 91.9001 42.9262C90.18 42.5547 88.6279 41.9767 87.0913 41.2361L87.6842 39.5512C89.2111 39.8359 90.7978 40.0904 92.279 40.1785C93.0128 40.2199 93.7492 40.2083 94.3087 40.0933C94.583 40.0386 94.8006 39.9363 94.8469 39.8841C94.8612 39.8721 94.8592 39.8637 94.855 39.8637C94.8524 39.8634 94.8499 39.8637 94.8479 39.8647C94.8486 39.8631 94.8421 39.8699 94.8492 39.8621L94.8732 39.8356L94.969 39.73L95.3524 39.308C96.3644 38.1546 97.3446 36.9253 98.2976 35.6676C99.2516 34.4183 100.203 33.1226 101.114 31.8652L104.083 33.9118Z" fill="#FFC3BD"/>
<path d="M112.299 22.419C111.957 24.1592 111.617 27.3483 112.834 28.5095C112.834 28.5095 112.359 30.275 109.125 30.275C105.569 30.275 107.425 28.5098 107.425 28.5098C109.366 28.0464 109.316 26.6064 108.978 25.2544L112.299 22.419Z" fill="#FFC3BD"/>
<path d="M112.506 19.7992C112.361 22.1556 112.396 23.5423 111.206 24.7518C109.416 26.571 106.507 25.492 105.944 23.1398C105.438 21.0226 105.76 17.5243 108.067 16.5865C110.339 15.6626 112.65 17.4427 112.506 19.7992Z" fill="#FFC3BD"/>
<path d="M107.927 18.23C107.945 21.002 108.844 24.4008 111.525 24.1667C113.308 24.0113 114.662 20.7607 114.846 19.3864C115.127 17.2809 115.159 16.8806 113.985 16.6378C114.502 16.3544 114.691 15.0209 113.479 14.7016C111.796 14.2583 108.628 13.8224 109.618 12.7969C107.63 13.1566 107.131 13.9529 107.495 14.9199C106.332 14.8299 105.615 14.2204 105.651 13.3007C103.727 14.0744 102.476 18.4875 107.927 18.23Z" fill="#263238"/>
<path d="M115.802 17.1206C115.466 16.9347 114.701 16.5105 113.654 16.9632C113.654 16.9632 114.988 15.1398 115.802 17.1206Z" fill="#263238"/>
<path d="M119.363 105.42C119.345 105.42 119.813 107.093 119.813 107.093H124.715L124.625 105.6L119.363 105.42Z" fill="#000AFF"/>
<path d="M105.686 105.42C105.668 105.42 105.913 107.093 105.913 107.093H110.816L110.948 105.6L105.686 105.42Z" fill="#000AFF"/>
<path d="M109.326 20.4841C109.195 21.0887 108.823 21.6188 108.424 21.9416C107.825 22.4271 107.344 21.9931 107.359 21.2914C107.373 20.6596 107.702 19.6457 108.376 19.4314C109.041 19.2196 109.475 19.7931 109.326 20.4841Z" fill="#FFC3BD"/>
<path d="M113.3 29.1144C113.555 28.5555 113.836 27.916 113.255 27.7158C112.617 27.4953 109.121 27.2706 107.916 27.6844C106.71 28.0983 107.052 29.2317 107.052 29.2317L113.3 29.1144Z" fill="white"/>
<path d="M103.766 29.1677C103.766 29.1677 101.234 32.0277 103.625 49.7296C107.459 49.7296 114.484 49.7296 116.35 49.7296C116.437 47.7763 115.21 38.2481 117.094 29.0449C117.094 29.0449 114.913 28.6071 112.834 28.5071C111.208 28.4287 108.855 28.3769 107.425 28.5074C105.541 28.6793 103.766 29.1677 103.766 29.1677Z" fill="#000AFF"/>
<path opacity="0.3" d="M103.766 29.1677C103.766 29.1677 101.234 32.0277 103.625 49.7296C107.459 49.7296 114.484 49.7296 116.35 49.7296C116.437 47.7763 115.21 38.2481 117.094 29.0449C117.094 29.0449 114.913 28.6071 112.834 28.5071C111.208 28.4287 108.855 28.3769 107.425 28.5074C105.541 28.6793 103.766 29.1677 103.766 29.1677Z" fill="white"/>
<path d="M105.179 34.2871C105.137 34.3389 104.859 37.2113 102.666 39.7339C102.615 38.594 102.595 37.5707 102.598 36.6543L105.179 34.2871Z" fill="#333BFF"/>
<path d="M106.276 31.0978C106.59 33.3503 102.152 39.1047 102.152 39.1047L97.6921 36.0351C97.6921 36.0351 98.9284 32.8639 101.012 30.7859C103.389 28.4133 105.935 28.6461 106.276 31.0978Z" fill="#000AFF"/>
<path opacity="0.3" d="M106.276 31.0978C106.59 33.3503 102.152 39.1047 102.152 39.1047L97.6921 36.0351C97.6921 36.0351 98.9284 32.8639 101.012 30.7859C103.389 28.4133 105.935 28.6461 106.276 31.0978Z" fill="white"/>
<path d="M65.6532 17.4801C66.6562 13.0641 63.8894 8.67116 59.4735 7.66814C55.0575 6.66512 50.6645 9.43189 49.6615 13.8479C48.6584 18.2639 51.4252 22.6569 55.8412 23.6599C60.2572 24.6629 64.6502 21.8961 65.6532 17.4801Z" fill="#000AFF"/>
<path opacity="0.2" d="M65.6532 17.4801C66.6562 13.0641 63.8894 8.67116 59.4735 7.66814C55.0575 6.66512 50.6645 9.43189 49.6615 13.8479C48.6584 18.2639 51.4252 22.6569 55.8412 23.6599C60.2572 24.6629 64.6502 21.8961 65.6532 17.4801Z" fill="white"/>
<path d="M56.8053 26.2964C52.4474 25.9469 48.7872 23.0256 47.48 18.8533L47.7848 18.7578C49.0527 22.8049 52.6036 25.639 56.8309 25.9779L56.8053 26.2964Z" fill="#000AFF"/>
<path opacity="0.2" d="M56.8053 26.2964C52.4474 25.9469 48.7872 23.0256 47.48 18.8533L47.7848 18.7578C49.0527 22.8049 52.6036 25.639 56.8309 25.9779L56.8053 26.2964Z" fill="white"/>
<path d="M47.7413 12.7126L47.4353 12.6212C48.4531 9.21782 51.0815 6.55301 54.4663 5.49245C56.6545 4.80692 58.9539 4.83758 61.1156 5.58157L61.0117 5.88345C58.9149 5.16182 56.6848 5.13179 54.5618 5.79688C51.2786 6.82581 48.7287 9.41108 47.7413 12.7126Z" fill="#000AFF"/>
<path opacity="0.2" d="M47.7413 12.7126L47.4353 12.6212C48.4531 9.21782 51.0815 6.55301 54.4663 5.49245C56.6545 4.80692 58.9539 4.83758 61.1156 5.58157L61.0117 5.88345C58.9149 5.16182 56.6848 5.13179 54.5618 5.79688C51.2786 6.82581 48.7287 9.41108 47.7413 12.7126Z" fill="white"/>
<path d="M67.5234 12.5743C66.7746 10.1846 65.1873 8.15001 63.0531 6.84507L63.2195 6.57227C65.4196 7.91745 67.0561 10.0149 67.8279 12.4785L67.5234 12.5743Z" fill="#000AFF"/>
<path opacity="0.2" d="M67.5234 12.5743C66.7746 10.1846 65.1873 8.15001 63.0531 6.84507L63.2195 6.57227C65.4196 7.91745 67.0561 10.0149 67.8279 12.4785L67.5234 12.5743Z" fill="white"/>
<path d="M65.6537 40.1208C66.6567 35.7048 63.8899 31.3118 59.4739 30.3088C55.0579 29.3057 50.665 32.0725 49.6619 36.4885C48.6589 40.9045 51.4257 45.2975 55.8417 46.3005C60.2577 47.3035 64.6507 44.5368 65.6537 40.1208Z" fill="#000AFF"/>
<path opacity="0.6" d="M65.6537 40.1208C66.6567 35.7048 63.8899 31.3118 59.4739 30.3088C55.0579 29.3057 50.665 32.0725 49.6619 36.4885C48.6589 40.9045 51.4257 45.2975 55.8417 46.3005C60.2577 47.3035 64.6507 44.5368 65.6537 40.1208Z" fill="white"/>
<path d="M65.6546 62.7594C66.6576 58.3434 63.8908 53.9505 59.4749 52.9474C55.0589 51.9444 50.6659 54.7112 49.6629 59.1272C48.6598 63.5432 51.4266 67.9362 55.8426 68.9392C60.2586 69.9422 64.6516 67.1754 65.6546 62.7594Z" fill="#000AFF"/>
<path opacity="0.6" d="M65.6546 62.7594C66.6576 58.3434 63.8908 53.9505 59.4749 52.9474C55.0589 51.9444 50.6659 54.7112 49.6629 59.1272C48.6598 63.5432 51.4266 67.9362 55.8426 68.9392C60.2586 69.9422 64.6516 67.1754 65.6546 62.7594Z" fill="white"/>
<path d="M65.6553 85.3981C66.6583 80.9821 63.8915 76.5891 59.4755 75.5861C55.0595 74.5831 50.6666 77.3499 49.6635 81.7659C48.6605 86.1818 51.4273 90.5748 55.8433 91.5778C60.2593 92.5809 64.6522 89.8141 65.6553 85.3981Z" fill="#000AFF"/>
<path opacity="0.6" d="M65.6553 85.3981C66.6583 80.9821 63.8915 76.5891 59.4755 75.5861C55.0595 74.5831 50.6666 77.3499 49.6635 81.7659C48.6605 86.1818 51.4273 90.5748 55.8433 91.5778C60.2593 92.5809 64.6522 89.8141 65.6553 85.3981Z" fill="white"/>
<path d="M43.0145 17.4821C44.0175 13.0661 41.2507 8.67311 36.8347 7.67009C32.4187 6.66707 28.0257 9.43384 27.0227 13.8498C26.0197 18.2658 28.7865 22.6588 33.2025 23.6618C37.6185 24.6648 42.0114 21.8981 43.0145 17.4821Z" fill="#000AFF"/>
<path opacity="0.6" d="M43.0145 17.4821C44.0175 13.0661 41.2507 8.67311 36.8347 7.67009C32.4187 6.66707 28.0257 9.43384 27.0227 13.8498C26.0197 18.2658 28.7865 22.6588 33.2025 23.6618C37.6185 24.6648 42.0114 21.8981 43.0145 17.4821Z" fill="white"/>
<path d="M43.015 40.1227C44.018 35.7067 41.2513 31.3137 36.8353 30.3107C32.4193 29.3077 28.0263 32.0745 27.0233 36.4905C26.0203 40.9065 28.787 45.2994 33.203 46.3025C37.619 47.3055 42.012 44.5387 43.015 40.1227Z" fill="#000AFF"/>
<path opacity="0.6" d="M43.015 40.1227C44.018 35.7067 41.2513 31.3137 36.8353 30.3107C32.4193 29.3077 28.0263 32.0745 27.0233 36.4905C26.0203 40.9065 28.787 45.2994 33.203 46.3025C37.619 47.3055 42.012 44.5387 43.015 40.1227Z" fill="white"/>
<path d="M43.0157 62.7594C44.0188 58.3434 41.252 53.9505 36.836 52.9474C32.42 51.9444 28.027 54.7112 27.024 59.1272C26.021 63.5432 28.7878 67.9362 33.2037 68.9392C37.6197 69.9422 42.0127 67.1754 43.0157 62.7594Z" fill="#000AFF"/>
<path opacity="0.6" d="M43.0157 62.7594C44.0188 58.3434 41.252 53.9505 36.836 52.9474C32.42 51.9444 28.027 54.7112 27.024 59.1272C26.021 63.5432 28.7878 67.9362 33.2037 68.9392C37.6197 69.9422 42.0127 67.1754 43.0157 62.7594Z" fill="white"/>
<path d="M43.0167 85.4001C44.0197 80.9841 41.2529 76.5911 36.8369 75.5881C32.4209 74.585 28.0279 77.3518 27.0249 81.7678C26.0219 86.1838 28.7887 90.5768 33.2047 91.5798C37.6207 92.5828 42.0136 89.816 43.0167 85.4001Z" fill="#000AFF"/>
<path opacity="0.6" d="M43.0167 85.4001C44.0197 80.9841 41.2529 76.5911 36.8369 75.5881C32.4209 74.585 28.0279 77.3518 27.0249 81.7678C26.0219 86.1838 28.7887 90.5768 33.2047 91.5798C37.6207 92.5828 42.0136 89.816 43.0167 85.4001Z" fill="white"/>
<path d="M59.0914 37.0664C59.7219 35.2086 61.8413 34.4127 63.511 35.2857L61.5803 34.276C60.1066 33.5053 59.3922 31.7243 60.0574 30.2C60.7876 28.5262 62.7872 27.8422 64.3785 28.6741L62.4475 27.6645C60.9738 26.8938 60.2594 25.1127 60.9246 23.5881C61.6548 21.9143 63.6544 21.2307 65.2457 22.0626L56.0196 17.2386C54.6401 16.5174 53.9163 14.9012 54.4163 13.4271C55.0468 11.5693 57.1662 10.7734 58.8362 11.6464L78.2641 21.8048L76.2635 13.6163C76.0628 12.7986 76.1832 11.9738 76.5466 11.2792C76.9442 10.5189 77.633 9.91427 78.507 9.64064C80.1867 9.11183 81.9855 9.98325 82.618 11.6257L88.9935 28.181C89.5385 29.5961 90.5802 30.7638 91.9238 31.4665L93.0325 32.0461C93.7475 32.4198 94.0241 33.3026 93.6501 34.0176L85.8857 48.8673C85.512 49.5823 84.6293 49.8588 83.9142 49.4851L81.1876 48.0593C80.1579 47.5208 78.9992 47.3016 77.8386 47.3663C75.0489 47.5218 72.2572 46.9233 69.7627 45.6193L60.6946 40.8778C59.3151 40.1567 58.5914 38.5405 59.0914 37.0664Z" fill="#000AFF"/>
<path d="M84.5877 50.1354C84.2839 50.1354 83.9763 50.0642 83.6891 49.914L80.9625 48.4882C80.0454 48.0089 78.9751 47.7887 77.8657 47.8499C74.9814 48.0118 72.0993 47.3875 69.5379 46.0481L60.4698 41.3067C58.8571 40.4634 58.067 38.5726 58.6318 36.9088C58.9731 35.9023 59.7324 35.0996 60.7146 34.7061C60.8477 34.6527 60.9827 34.6077 61.1191 34.5708C59.5547 33.6074 58.8928 31.6537 59.6123 30.0042C60.0174 29.0754 60.768 28.3779 61.7259 28.0405C61.812 28.0101 61.8992 27.9832 61.9866 27.9595C60.4222 26.9958 59.76 25.0422 60.4795 23.3926C60.8846 22.4639 61.6352 21.7667 62.5931 21.4293C62.6747 21.4005 62.7573 21.3745 62.8402 21.3519L55.7947 17.6677C54.1824 16.8248 53.3919 14.934 53.9567 13.2698C54.2983 12.2634 55.0577 11.4606 56.0399 11.0672C57.0253 10.6721 58.1269 10.7259 59.0615 11.2148L77.538 20.8755L75.7923 13.7303C75.5708 12.8278 75.6857 11.8767 76.1164 11.0529C76.5895 10.1478 77.3871 9.48108 78.3621 9.17571C80.2792 8.5721 82.3484 9.57077 83.0712 11.4493L89.4467 28.0046C89.9496 29.3099 90.9094 30.386 92.149 31.0339L93.2578 31.6136C94.2085 32.111 94.578 33.2894 94.0806 34.2405L86.3163 49.0901C85.9691 49.755 85.2897 50.1354 84.5877 50.1354ZM78.23 46.8684C79.3644 46.8684 80.457 47.1281 81.4129 47.6274L84.1395 49.0532C84.3701 49.174 84.634 49.1977 84.8827 49.1196C85.1314 49.0419 85.3348 48.8719 85.4555 48.641L93.2199 33.7913C93.4692 33.3146 93.284 32.7243 92.8077 32.4753L91.6989 31.8956C90.2498 31.1382 89.1284 29.8805 88.5406 28.3543L82.1651 11.799C81.6253 10.3978 80.0833 9.6527 78.6532 10.1028C77.9253 10.3311 77.3304 10.8282 76.9775 11.5034C76.6565 12.1173 76.5707 12.8262 76.7359 13.4994L78.7368 21.689C78.7821 21.8742 78.7148 22.0691 78.5645 22.1867C78.4139 22.3042 78.209 22.323 78.0399 22.2346L58.6117 12.0762C57.9294 11.7194 57.1234 11.6808 56.4012 11.9694C55.6723 12.2614 55.1309 12.8343 54.8767 13.5823C54.4644 14.7973 55.0525 16.1839 56.2452 16.8073L65.4713 21.6313C65.709 21.7557 65.8009 22.0491 65.6766 22.2868C65.5526 22.5241 65.2585 22.6167 65.0212 22.4921C64.3761 22.155 63.609 22.1015 62.9163 22.3454C62.2155 22.5925 61.6667 23.1022 61.3704 23.7812C60.8186 25.0461 61.3908 26.5622 62.6731 27.2329L64.6037 28.2426C64.8414 28.3669 64.9334 28.6603 64.8091 28.898C64.6847 29.1354 64.3913 29.228 64.1536 29.1033L64.1504 29.1017C63.5063 28.7662 62.7405 28.7131 62.0491 28.9569C61.348 29.204 60.7991 29.7137 60.5028 30.3928C59.951 31.6576 60.5232 33.1738 61.8056 33.8444L63.7327 34.8519C63.734 34.8525 63.7349 34.8531 63.7362 34.8538C63.9739 34.9781 64.0659 35.2715 63.9415 35.5092C63.8172 35.7466 63.5238 35.8389 63.2861 35.7145L63.2825 35.7129C62.6006 35.3573 61.7968 35.3188 61.0753 35.608C60.3464 35.8997 59.805 36.4726 59.5514 37.221C59.1392 38.436 59.7273 39.8222 60.9199 40.4459L69.9877 45.1874C72.3947 46.4458 75.1009 47.0303 77.8116 46.88C77.9515 46.8719 78.0911 46.8684 78.23 46.8684Z" fill="#000AFF"/>
<path opacity="0.3" d="M84.5877 50.1354C84.2839 50.1354 83.9763 50.0642 83.6891 49.914L80.9625 48.4882C80.0454 48.0089 78.9751 47.7887 77.8657 47.8499C74.9814 48.0118 72.0993 47.3875 69.5379 46.0481L60.4698 41.3067C58.8571 40.4634 58.067 38.5726 58.6318 36.9088C58.9731 35.9023 59.7324 35.0996 60.7146 34.7061C60.8477 34.6527 60.9827 34.6077 61.1191 34.5708C59.5547 33.6074 58.8928 31.6537 59.6123 30.0042C60.0174 29.0754 60.768 28.3779 61.7259 28.0405C61.812 28.0101 61.8992 27.9832 61.9866 27.9595C60.4222 26.9958 59.76 25.0422 60.4795 23.3926C60.8846 22.4639 61.6352 21.7667 62.5931 21.4293C62.6747 21.4005 62.7573 21.3745 62.8402 21.3519L55.7947 17.6677C54.1824 16.8248 53.3919 14.934 53.9567 13.2698C54.2983 12.2634 55.0577 11.4606 56.0399 11.0672C57.0253 10.6721 58.1269 10.7259 59.0615 11.2148L77.538 20.8755L75.7923 13.7303C75.5708 12.8278 75.6857 11.8767 76.1164 11.0529C76.5895 10.1478 77.3871 9.48108 78.3621 9.17571C80.2792 8.5721 82.3484 9.57077 83.0712 11.4493L89.4467 28.0046C89.9496 29.3099 90.9094 30.386 92.149 31.0339L93.2578 31.6136C94.2085 32.111 94.578 33.2894 94.0806 34.2405L86.3163 49.0901C85.9691 49.755 85.2897 50.1354 84.5877 50.1354ZM78.23 46.8684C79.3644 46.8684 80.457 47.1281 81.4129 47.6274L84.1395 49.0532C84.3701 49.174 84.634 49.1977 84.8827 49.1196C85.1314 49.0419 85.3348 48.8719 85.4555 48.641L93.2199 33.7913C93.4692 33.3146 93.284 32.7243 92.8077 32.4753L91.6989 31.8956C90.2498 31.1382 89.1284 29.8805 88.5406 28.3543L82.1651 11.799C81.6253 10.3978 80.0833 9.6527 78.6532 10.1028C77.9253 10.3311 77.3304 10.8282 76.9775 11.5034C76.6565 12.1173 76.5707 12.8262 76.7359 13.4994L78.7368 21.689C78.7821 21.8742 78.7148 22.0691 78.5645 22.1867C78.4139 22.3042 78.209 22.323 78.0399 22.2346L58.6117 12.0762C57.9294 11.7194 57.1234 11.6808 56.4012 11.9694C55.6723 12.2614 55.1309 12.8343 54.8767 13.5823C54.4644 14.7973 55.0525 16.1839 56.2452 16.8073L65.4713 21.6313C65.709 21.7557 65.8009 22.0491 65.6766 22.2868C65.5526 22.5241 65.2585 22.6167 65.0212 22.4921C64.3761 22.155 63.609 22.1015 62.9163 22.3454C62.2155 22.5925 61.6667 23.1022 61.3704 23.7812C60.8186 25.0461 61.3908 26.5622 62.6731 27.2329L64.6037 28.2426C64.8414 28.3669 64.9334 28.6603 64.8091 28.898C64.6847 29.1354 64.3913 29.228 64.1536 29.1033L64.1504 29.1017C63.5063 28.7662 62.7405 28.7131 62.0491 28.9569C61.348 29.204 60.7991 29.7137 60.5028 30.3928C59.951 31.6576 60.5232 33.1738 61.8056 33.8444L63.7327 34.8519C63.734 34.8525 63.7349 34.8531 63.7362 34.8538C63.9739 34.9781 64.0659 35.2715 63.9415 35.5092C63.8172 35.7466 63.5238 35.8389 63.2861 35.7145L63.2825 35.7129C62.6006 35.3573 61.7968 35.3188 61.0753 35.608C60.3464 35.8997 59.805 36.4726 59.5514 37.221C59.1392 38.436 59.7273 39.8222 60.9199 40.4459L69.9877 45.1874C72.3947 46.4458 75.1009 47.0303 77.8116 46.88C77.9515 46.8719 78.0911 46.8684 78.23 46.8684Z" fill="black"/>
</svg>
