<svg width="160" height="120" viewBox="0 0 160 120" fill="none" xmlns="http://www.w3.org/2000/svg">
<path d="M79.7388 114.999C113.284 114.999 140.478 113.411 140.478 111.452C140.478 109.493 113.284 107.905 79.7388 107.905C46.1937 107.905 19 109.493 19 111.452C19 113.411 46.1937 114.999 79.7388 114.999Z" fill="#667085"/>
<path d="M140.691 6V74.9937L132.39 83.2952H84.3314V6H140.691Z" fill="#000AFF"/>
<path opacity="0.8" d="M140.691 6V74.9937L132.39 83.2952H84.3314V6H140.691Z" fill="white"/>
<path opacity="0.2" d="M132.39 83.2948V75.2363H140.691L132.551 83.3759" fill="black"/>
<g opacity="0.1">
<path d="M105.659 12.6917H90.1138C89.6583 12.6917 89.2889 12.3223 89.2889 11.8668C89.2889 11.4113 89.6583 11.042 90.1138 11.042H105.659C106.114 11.042 106.484 11.4113 106.484 11.8668C106.484 12.3223 106.114 12.6917 105.659 12.6917Z" fill="black"/>
<path d="M133.853 19.3826H96.3791C95.9236 19.3826 95.5543 19.0133 95.5543 18.5578C95.5543 18.1023 95.9236 17.733 96.3791 17.733H133.853C134.308 17.733 134.678 18.1023 134.678 18.5578C134.678 19.0133 134.308 19.3826 133.853 19.3826Z" fill="black"/>
<path d="M133.853 22.6314H90.1138C89.6583 22.6314 89.289 22.2621 89.289 21.8066C89.289 21.3511 89.6583 20.9818 90.1138 20.9818H133.853C134.308 20.9818 134.678 21.3511 134.678 21.8066C134.678 22.2621 134.308 22.6314 133.853 22.6314Z" fill="black"/>
<path d="M133.853 26.3012H90.1138C89.6583 26.3012 89.289 25.9319 89.289 25.4764C89.289 25.0209 89.6583 24.6516 90.1138 24.6516H133.853C134.308 24.6516 134.678 25.0209 134.678 25.4764C134.678 25.9319 134.308 26.3012 133.853 26.3012Z" fill="black"/>
<path d="M133.853 29.972H90.1138C89.6583 29.972 89.289 29.6027 89.289 29.1472C89.289 28.6917 89.6583 28.3223 90.1138 28.3223H133.853C134.308 28.3223 134.678 28.6917 134.678 29.1472C134.678 29.6027 134.308 29.972 133.853 29.972Z" fill="black"/>
<path d="M133.853 33.6437H90.1138C89.6583 33.6437 89.289 33.2744 89.289 32.8189C89.289 32.3634 89.6583 31.9941 90.1138 31.9941H133.853C134.308 31.9941 134.678 32.3634 134.678 32.8189C134.678 33.2744 134.308 33.6437 133.853 33.6437Z" fill="black"/>
<path d="M133.853 37.3145H90.1138C89.6583 37.3145 89.289 36.9452 89.289 36.4897C89.289 36.0342 89.6583 35.6649 90.1138 35.6649H133.853C134.308 35.6649 134.678 36.0342 134.678 36.4897C134.678 36.9455 134.308 37.3145 133.853 37.3145Z" fill="black"/>
<path d="M133.853 40.9853H90.1138C89.6583 40.9853 89.289 40.6159 89.289 40.1605C89.289 39.705 89.6583 39.3356 90.1138 39.3356H133.853C134.308 39.3356 134.678 39.705 134.678 40.1605C134.678 40.6159 134.308 40.9853 133.853 40.9853Z" fill="black"/>
<path d="M133.853 44.6559H90.1138C89.6583 44.6559 89.2889 44.2866 89.2889 43.8311C89.2889 43.3756 89.6583 43.0062 90.1138 43.0062H133.853C134.308 43.0062 134.678 43.3756 134.678 43.8311C134.678 44.2869 134.308 44.6559 133.853 44.6559Z" fill="black"/>
<path d="M133.853 48.3258H90.1138C89.6583 48.3258 89.2889 47.9564 89.2889 47.5009C89.2889 47.0455 89.6583 46.6761 90.1138 46.6761H133.853C134.308 46.6761 134.678 47.0455 134.678 47.5009C134.678 47.9564 134.308 48.3258 133.853 48.3258Z" fill="black"/>
<path d="M133.853 51.9966H90.1138C89.6583 51.9966 89.2889 51.6273 89.2889 51.1718C89.2889 50.7163 89.6583 50.347 90.1138 50.347H133.853C134.308 50.347 134.678 50.7163 134.678 51.1718C134.678 51.6276 134.308 51.9966 133.853 51.9966Z" fill="black"/>
<path d="M133.853 55.6675H90.1138C89.6583 55.6675 89.2889 55.2982 89.2889 54.8427C89.2889 54.3872 89.6583 54.0178 90.1138 54.0178H133.853C134.308 54.0178 134.678 54.3872 134.678 54.8427C134.678 55.2982 134.308 55.6675 133.853 55.6675Z" fill="black"/>
<path d="M108.792 59.3394H90.1138C89.6583 59.3394 89.2889 58.97 89.2889 58.5145C89.2889 58.059 89.6583 57.6897 90.1138 57.6897H108.792C109.247 57.6897 109.616 58.059 109.616 58.5145C109.616 58.97 109.247 59.3394 108.792 59.3394Z" fill="black"/>
</g>
<path d="M130.471 22.906C130.453 22.8901 130.433 22.8735 130.411 22.8565C130.244 22.7256 130.145 22.7694 130.067 22.5242C130.01 22.3437 130.075 22.1442 130.003 21.9578C129.881 21.6417 129.657 21.3347 129.492 21.038C129.234 20.576 128.977 20.1136 128.719 19.6515C128.363 19.0115 127.552 18.7809 126.913 19.1374L119.818 23.0899C119.789 23.328 119.592 23.4906 119.553 23.7296C119.531 23.8634 119.564 24.0141 119.669 24.0996C119.581 24.1058 119.523 24.0607 119.451 24.0206C119.029 23.7857 118.915 23.5977 118.479 23.8355C118.293 23.9373 118.108 24.0426 117.922 24.1459C117.294 24.4959 116.666 24.8455 116.038 25.1954C114.075 26.289 112.112 27.3826 110.149 28.4762C107.848 29.7581 105.547 31.0403 103.245 32.3222C101.332 33.3882 99.4185 34.454 97.505 35.52C96.7225 35.9561 95.7708 36.3373 95.0741 36.8915C95.2689 36.9939 95.3006 37.1455 95.1292 37.2965C95.0205 37.3921 94.9121 37.4876 94.8034 37.5832C94.8 37.6596 94.9184 37.6593 94.9886 37.6289C95.1179 37.5731 95.2476 37.5174 95.377 37.4616C95.1089 37.8043 94.783 38.1016 94.4172 38.3372C93.8185 38.7228 93.1277 38.9368 92.447 39.146C92.5579 39.0066 92.6688 38.8672 92.7797 38.7278C92.8067 38.6937 92.8352 38.6492 92.8164 38.6101C92.7991 38.5743 92.7534 38.5659 92.7139 38.5618C92.5498 38.5449 92.3841 38.5602 92.2594 38.4393C91.1886 39.0803 90.0706 39.6614 88.9782 40.27C88.3382 40.6265 88.1077 41.4373 88.4642 42.077L95.617 54.9171C95.9735 55.5571 96.7842 55.7877 97.4239 55.4312L99.3495 54.3586C99.3536 54.1355 99.525 53.8883 99.3943 53.6825C99.3777 53.6565 99.3574 53.6302 99.3577 53.5995C99.358 53.5582 99.3953 53.5278 99.43 53.5052C99.6214 53.3815 99.8461 53.3101 100.074 53.2997C100.151 53.2963 100.256 53.332 100.241 53.4075C100.254 53.3404 100.646 53.1942 100.713 53.1738C100.744 53.3436 100.628 53.5256 100.826 53.5597C100.985 53.5873 101.323 53.2593 101.463 53.181C102.092 52.8311 102.719 52.4815 103.347 52.1316C105.328 51.0279 107.31 49.9243 109.291 48.8206C111.467 47.6086 113.643 46.3963 115.818 45.1843C117.262 44.3801 118.705 43.5759 120.149 42.7718C120.308 42.6831 120.49 42.5766 120.642 42.5005C120.708 42.2609 120.83 41.8903 121.043 41.7418C121.354 41.525 121.85 41.7631 122.113 41.4558C122.162 41.3975 122.193 41.3248 122.237 41.2625C122.313 41.156 122.427 41.0833 122.538 41.0137C122.618 40.9633 122.704 40.9113 122.799 40.9116C122.894 40.9119 122.995 40.9893 122.982 41.0833C123.629 40.9329 124.211 40.4997 124.781 40.1761C124.986 40.0595 126.802 39.2074 126.794 39.0731C126.768 38.6555 127.024 38.299 127.012 37.8692C127.009 37.788 126.851 37.2452 126.924 37.2022C125.293 38.1724 123.601 39.0558 121.943 39.9797C121.886 40.0113 121.673 40.0852 121.643 40.1466C121.636 40.162 121.627 40.1767 121.62 40.192C121.604 40.2259 121.588 40.26 121.573 40.2945C121.569 40.3033 121.565 40.312 121.561 40.3208C121.482 40.5185 121.423 40.7544 121.323 40.9411C121.309 40.9686 120.969 41.4069 120.941 41.3035C120.803 40.7988 120.613 40.7202 120.242 40.9276C120.058 41.03 119.875 41.1318 119.691 41.234C119.107 41.5595 118.523 41.8846 117.939 42.2101C115.973 43.3056 114.006 44.4011 112.04 45.4966C109.723 46.7872 107.405 48.0779 105.089 49.3689C103.158 50.4446 101.227 51.5201 99.2956 52.5958C98.4871 53.0463 97.6786 53.4965 96.8703 53.9469C96.3823 53.0707 95.8942 52.1948 95.4061 51.3186C95.0926 50.756 94.7793 50.1934 94.4657 49.6308C94.352 49.4265 94.2445 49.1402 94.0541 48.9998C93.9181 48.8999 93.6904 48.9247 93.5695 48.8335C93.2784 48.6136 93.0692 48.2023 92.7929 47.9473C92.6049 47.7737 92.3189 47.2474 92.3991 46.9567C92.4931 46.9937 92.5858 47.0322 92.6814 47.0629C92.6356 46.8574 92.6362 46.6829 92.7124 46.4787C91.766 44.8982 90.9061 43.2414 90.007 41.6274C90.0042 41.6224 89.9487 41.5228 89.9487 41.5228C90.6802 41.1152 91.4117 40.7077 92.1432 40.3004C92.6773 40.0028 93.2111 39.7055 93.7452 39.4079C94.0318 39.2482 94.4215 39.1078 94.6709 38.8923C94.8748 38.7162 95.0788 38.4963 95.3096 38.3081C95.4503 38.1934 95.6148 38.1129 95.7777 38.0333C95.975 37.9372 96.1724 37.8407 96.3697 37.7445C96.4014 37.7291 96.4346 37.7132 96.47 37.7135C96.5063 37.7135 96.5402 37.7307 96.5756 37.7379C96.8926 37.804 97.6654 37.2242 97.9464 37.0675C98.5535 36.7292 99.1609 36.3909 99.7681 36.0525C101.602 35.031 103.435 34.0097 105.269 32.9882C107.554 31.7154 109.839 30.4426 112.124 29.1695C114.411 27.8954 116.698 26.6214 118.985 25.3473C120.825 24.3223 122.665 23.2973 124.505 22.2723C125.449 21.7463 126.393 21.2207 127.337 20.6947C127.381 20.6706 127.424 20.6464 127.467 20.6223C127.467 20.6223 130.491 26.0506 130.516 26.0948C130.691 26.4083 131.035 26.835 131.379 26.9475C131.502 26.9879 131.643 27.0743 131.629 27.2034C131.615 27.3406 131.425 27.439 131.469 27.5699C131.518 27.7197 131.752 27.6533 131.811 27.7723C131.885 27.9211 131.714 28.0784 131.732 28.2488C131.751 28.4154 131.935 28.6438 132.016 28.7892C132.312 29.3205 132.608 29.8514 132.904 30.3827C133.398 31.269 133.891 32.1549 134.388 33.0474L128.967 36.0673C128.994 36.0886 129.017 36.1143 129.033 36.1459C129.045 36.1688 129.052 36.1929 129.061 36.217C129.175 36.2477 129.285 36.3072 129.389 36.3536C129.477 36.3931 129.528 36.509 129.526 36.6001C129.524 36.6988 129.469 36.7906 129.383 36.8385L129.05 37.024C129.023 37.1709 128.917 37.2912 128.765 37.3225C128.727 37.3304 128.688 37.3307 128.649 37.3322C128.584 37.378 128.504 37.3987 128.416 37.3777C128.276 37.3441 128.174 37.1703 128.224 37.0321C128.236 36.997 128.254 36.9685 128.273 36.9416C128.225 36.8514 128.228 36.7392 128.292 36.649C128.259 36.6449 128.225 36.6437 128.191 36.6365C128.136 36.6249 128.084 36.6061 128.03 36.5892C127.69 36.7787 127.595 36.992 127.397 37.3304C127.387 37.3479 127.376 37.3676 127.38 37.3877C127.389 37.4319 127.449 37.4344 127.49 37.4538C127.582 37.4986 127.561 37.6364 127.515 37.7279C127.469 37.8194 127.412 37.9334 127.473 38.0158C127.495 38.0452 127.529 38.0637 127.553 38.0913C127.686 38.2423 127.481 38.6877 127.808 38.5054C127.783 38.4155 127.804 38.3002 127.851 38.2216C127.903 38.1342 127.993 38.0697 128.09 38.044C128.332 37.9801 128.582 37.9522 128.832 37.935L135.358 34.2995C135.998 33.943 136.229 33.1323 135.872 32.4926C135.86 32.47 135.847 32.4478 135.835 32.4252C134.851 30.6594 133.867 28.8935 132.883 27.1276C132.315 26.1073 131.747 25.0867 131.178 24.0664C131.014 23.7722 130.86 23.4702 130.686 23.182C130.615 23.0645 130.564 22.989 130.471 22.906Z" fill="#000AFF"/>
<path d="M100.309 40.2116C100.091 39.9497 100.158 39.9425 100.116 39.659C100.115 39.6524 100.113 39.6458 100.112 39.6395C100.103 39.6311 100.096 39.622 100.087 39.6145C100.072 39.6016 100.06 39.5847 100.048 39.5691C99.901 39.6348 99.7541 39.7063 99.6075 39.788L96.722 41.3954L97.883 43.4796C97.7213 43.1895 98.2968 43.2744 98.3184 43.2716C98.3823 43.2631 98.4443 43.2333 98.5079 43.2415C98.5703 43.2493 98.6226 43.2925 98.6611 43.3424C98.8087 43.5325 98.7858 43.7994 98.761 44.0387C98.7275 44.3652 98.8914 44.6781 98.7122 44.9754C98.8657 45.226 100.255 47.75 100.26 47.7472L103.146 46.1398C103.312 46.0468 103.707 45.882 103.804 45.7144C103.874 45.5938 103.749 45.2902 103.921 45.2097C104.037 45.1562 104.227 45.1815 104.317 45.2483C105.468 44.1114 105.658 42.4098 104.879 41.0126C104.068 39.5568 102.226 38.69 100.611 39.3658C100.498 39.4131 100.65 39.9168 100.379 39.9741C100.429 39.872 100.505 39.7849 100.597 39.7172M102.401 44.9735L101.058 45.7216C100.949 45.5258 100.841 45.3278 100.728 45.1345C100.87 45.3755 100.481 45.2996 100.4 45.2454C100.201 45.1126 100.148 44.7351 100.143 44.5212C100.131 44.0936 100.031 43.8777 99.8174 43.4949C99.4997 42.9245 99.1818 42.3537 98.8638 41.7832L100.207 41.0352C101.468 40.3325 102.714 40.6257 103.391 41.8415C104.068 43.0576 103.662 44.2709 102.401 44.9735Z" fill="#000AFF"/>
<path d="M109.848 34.8751C109.911 35.0305 109.939 35.1868 109.905 35.3528C109.887 35.4409 109.748 35.6717 109.767 35.7209C109.816 35.8462 109.865 35.9718 109.914 36.0972C109.921 36.1175 109.93 36.1385 109.946 36.1532C109.968 36.173 109.999 36.177 110.029 36.1799C110.526 36.2221 110.506 36.2748 110.537 36.6933C110.564 37.0523 110.875 37.2594 111.051 37.5751C111.723 38.7818 111.33 40.0828 110.196 40.7147C109.546 41.0765 108.838 41.1147 108.225 40.8557C108.212 40.8666 108.2 40.8814 108.186 40.8892C108.124 40.924 108.042 40.934 107.974 40.9139C107.646 40.8184 107.379 40.5534 107.312 40.2141C107.307 40.1887 107.31 40.1646 107.311 40.1405C107.227 40.0324 107.147 39.9168 107.076 39.7893C106.404 38.5823 106.797 37.2816 107.931 36.6498C108.352 36.4154 108.796 36.3246 109.224 36.3543C109.215 36.3421 109.206 36.3299 109.197 36.3177C108.928 35.9596 109.902 35.8171 109.462 35.5768C109.278 35.4763 109.31 35.0214 109.262 34.8353C108.593 34.846 107.9 35.0264 107.234 35.3973C105.229 36.5144 104.537 38.7308 105.588 40.6182C106.038 41.4242 106.763 42.0558 107.643 42.3462C107.828 42.4073 108.097 42.5141 108.294 42.4962C108.55 42.4734 108.426 42.5122 108.533 42.3424C108.631 42.1877 108.579 42.1228 108.743 41.9612C108.905 41.802 109.104 41.6993 109.14 41.449C109.131 41.5605 109.265 41.6423 109.264 41.7544C109.264 41.7879 109.252 41.8208 109.254 41.8544C109.257 41.8954 109.283 41.9308 109.308 41.9637C109.415 42.1078 109.592 42.2657 109.596 42.4417C110.039 42.3872 110.502 42.1852 110.893 41.9668C112.89 40.8547 113.596 38.6424 112.539 36.7459C112.01 35.7952 110.974 34.9403 109.848 34.8751Z" fill="#000AFF"/>
<path d="M116.252 30.5174L118.401 34.374L113.094 32.2767L111.878 32.954C112.699 34.4276 113.571 35.8846 114.343 37.3832C114.395 37.2222 114.521 37.1903 114.671 37.1696C114.952 37.1301 114.942 37.2714 115.098 37.5518C115.115 37.5837 115.138 37.6188 115.173 37.626C115.228 37.6367 115.276 37.5743 115.332 37.5806C115.387 37.5868 115.411 37.6583 115.396 37.7118C115.381 37.7651 115.341 37.8077 115.316 37.8569C115.225 38.0289 115.376 38.1407 115.356 38.2955C115.345 38.3791 115.085 38.7096 115.116 38.7654L115.417 39.3057L116.869 38.4969L116.48 37.7999C116.457 37.803 116.434 37.8077 116.41 37.8105C115.986 37.8653 116.173 37.3121 116.081 37.0841C115.953 36.7642 115.732 36.4566 115.564 36.1555C115.283 35.6506 115.002 35.1456 114.72 34.6403L119.036 36.3391C119.044 36.2122 119.018 36.0813 119.079 35.9704C119.114 35.9068 119.384 35.7837 119.379 35.7195C119.394 35.9193 119.49 36.112 119.641 36.2436C119.809 36.3899 119.809 36.3692 119.776 36.6304L120.036 36.7326L121.243 36.0603L117.704 29.7085L116.252 30.5174Z" fill="#000AFF"/>
<path d="M123.554 33.2259L122.736 31.7557L125.685 30.1129L125.048 28.9695L122.099 30.6123L121.33 29.233L123.324 28.1221C123.402 28.0141 123.511 27.9295 123.628 27.8637C123.692 27.8277 123.762 27.8245 123.827 27.8424L124.67 27.3728C124.67 27.3728 124.073 26.3052 124.015 26.1934C123.727 26.3249 124.015 26.6877 123.725 26.8628C123.783 26.9258 123.873 27.1498 123.714 27.1639C123.629 27.1714 123.569 27.058 123.484 27.0674C123.438 27.0727 123.396 27.1156 123.35 27.1047C123.324 27.0984 123.305 27.0755 123.291 27.0527C123.236 26.9653 123.213 26.8562 123.138 26.7845C122.941 26.5947 121.141 27.7926 120.888 27.9336C120.329 28.2446 119.77 28.556 119.212 28.8671L122.75 35.2189L124.162 34.4323C124.172 34.4197 124.182 34.4069 124.192 34.394C124.293 34.2625 124.394 34.129 124.505 34.0059C124.591 33.9119 124.739 33.9082 124.844 33.9646C124.869 33.9777 124.889 33.9962 124.908 34.0169L127.669 32.479L127.011 31.2993L123.554 33.2259Z" fill="#000AFF"/>
<path d="M57.1773 24.8389H46.2393C45.3631 24.8389 44.6526 25.5494 44.6526 26.4256V37.0581C44.6526 37.9343 45.3631 38.6448 46.2393 38.6448H49.7398L47.3831 41.848L51.4584 38.6448H57.1773C58.0535 38.6448 58.764 37.9343 58.764 37.0581V26.4256C58.764 25.5494 58.0535 24.8389 57.1773 24.8389Z" fill="#000AFF"/>
<path opacity="0.6" d="M57.1773 24.8389H46.2393C45.3631 24.8389 44.6526 25.5494 44.6526 26.4256V37.0581C44.6526 37.9343 45.3631 38.6448 46.2393 38.6448H49.7398L47.3831 41.848L51.4584 38.6448H57.1773C58.0535 38.6448 58.764 37.9343 58.764 37.0581V26.4256C58.764 25.5494 58.0535 24.8389 57.1773 24.8389Z" fill="white"/>
<path d="M51.7083 36.7066C54.4508 36.7066 56.6739 34.4834 56.6739 31.741C56.6739 28.9986 54.4508 26.7754 51.7083 26.7754C48.9659 26.7754 46.7428 28.9986 46.7428 31.741C46.7428 34.4834 48.9659 36.7066 51.7083 36.7066Z" fill="#000AFF"/>
<path opacity="0.2" d="M55.8509 32.7257C56.3912 30.4377 54.9743 28.1449 52.6863 27.6046C50.3982 27.0643 48.1054 28.4812 47.5651 30.7692C47.0249 33.0573 48.4417 35.3501 50.7298 35.8904C53.0178 36.4306 55.3106 35.0138 55.8509 32.7257Z" fill="black"/>
<path d="M51.1795 33.7772C51.0658 33.7772 50.9568 33.7327 50.8753 33.6528L49.0687 31.8828C48.8974 31.7149 48.8946 31.4399 49.0625 31.2682C49.2304 31.0965 49.5057 31.094 49.6771 31.2619L51.1588 32.7139L53.7201 29.8526C53.8805 29.6737 54.1552 29.659 54.3338 29.8187C54.5127 29.9788 54.5277 30.2535 54.3676 30.4324L51.5031 33.6324C51.4239 33.7208 51.312 33.7731 51.1936 33.7768C51.1889 33.7768 51.1842 33.7772 51.1795 33.7772Z" fill="white"/>
<path d="M37.5244 104.148L46.5505 103.261V93.082H50.1277V103.257L59.1902 104.148C60.0899 104.236 60.7756 104.993 60.7756 105.897V107.252H48.6889H48.026H35.9389V105.897C35.9389 104.993 36.6247 104.236 37.5244 104.148Z" fill="#263238"/>
<path opacity="0.1" d="M37.5244 104.148L46.5505 103.261V93.082H50.1277V103.257L59.1902 104.148C60.0899 104.236 60.7756 104.993 60.7756 105.897V107.252H48.6889H48.026H35.9389V105.897C35.9389 104.993 36.6247 104.236 37.5244 104.148Z" fill="white"/>
<path d="M59.8205 111.272C61.1122 111.272 62.1593 110.225 62.1593 108.934C62.1593 107.642 61.1122 106.595 59.8205 106.595C58.5288 106.595 57.4816 107.642 57.4816 108.934C57.4816 110.225 58.5288 111.272 59.8205 111.272Z" fill="#263238"/>
<path d="M36.894 111.272C38.1857 111.272 39.2329 110.225 39.2329 108.934C39.2329 107.642 38.1857 106.595 36.894 106.595C35.6023 106.595 34.5552 107.642 34.5552 108.934C34.5552 110.225 35.6023 111.272 36.894 111.272Z" fill="#263238"/>
<path d="M47.2293 95.808H49.4491C50.1643 95.808 50.7439 95.2285 50.7439 94.5133V84.5098H45.9346V94.5133C45.9343 95.2285 46.5141 95.808 47.2293 95.808Z" fill="#263238"/>
<path opacity="0.2" d="M47.2293 95.808H49.4491C50.1643 95.808 50.7439 95.2285 50.7439 94.5133V84.5098H45.9346V94.5133C45.9343 95.2285 46.5141 95.808 47.2293 95.808Z" fill="white"/>
<path d="M35.8462 64.8975C35.8462 64.8975 38.5265 81.6293 43.8148 84.5101H38.4379C38.4379 84.5101 33.1268 78.8099 31.5088 64.8975H35.8462Z" fill="#263238"/>
<path opacity="0.1" d="M35.8462 64.8975C35.8462 64.8975 38.5265 81.6293 43.8148 84.5101H38.4379C38.4379 84.5101 33.1268 78.8099 31.5088 64.8975H35.8462Z" fill="white"/>
<path d="M59.1372 82.1445H38.1732C37.3082 82.1445 36.6068 82.8459 36.6068 83.7109V85.8063H60.7036V83.7109C60.7036 82.8459 60.0022 82.1445 59.1372 82.1445Z" fill="#000AFF"/>
<path d="M61.0779 83.9746H36.2325C35.8844 83.9746 35.6025 84.2565 35.6025 84.6046V85.1754C35.6025 85.5234 35.8844 85.8053 36.2325 85.8053H61.0779C61.426 85.8053 61.7079 85.5231 61.7079 85.1754V84.6046C61.7079 84.2565 61.426 83.9746 61.0779 83.9746Z" fill="#263238"/>
<path opacity="0.6" d="M61.0779 83.9746H36.2325C35.8844 83.9746 35.6025 84.2565 35.6025 84.6046V85.1754C35.6025 85.5234 35.8844 85.8053 36.2325 85.8053H61.0779C61.426 85.8053 61.7079 85.5231 61.7079 85.1754V84.6046C61.7079 84.2565 61.426 83.9746 61.0779 83.9746Z" fill="white"/>
<path d="M30.8738 68.2977H39.4871C42.0101 68.2977 43.6491 66.2743 43.1476 63.7785L42.4781 60.4469C41.9766 57.9511 39.5246 55.9277 37.0013 55.9277H28.3884C25.8653 55.9277 24.2263 57.9511 24.7278 60.4469L25.3973 63.7785C25.8985 66.2743 28.3508 68.2977 30.8738 68.2977Z" fill="#000AFF"/>
<path d="M76.5693 96.308L74.596 97.0799L73.176 94.4046L71.8859 91.9712L74.0741 90.6602L75.3951 93.6471L76.5693 96.308Z" fill="#FFC3BD"/>
<path opacity="0.2" d="M75.3951 93.6471L73.176 94.4046L71.8859 91.9712L74.0741 90.6602L75.3951 93.6471Z" fill="black"/>
<path d="M74.9858 92.1887L72.3001 93.6297C72.3001 93.6297 62.1541 75.7892 60.5934 75.9374C59.0327 76.0856 44.2312 85.5196 39.7173 82.0358C35.2038 78.5551 39.5958 68.0632 39.5958 68.0632C39.5958 68.0632 48.9336 65.3944 49.9461 67.4466C50.1428 67.8432 50.4072 68.6386 50.6149 69.3216C50.8138 69.9647 50.9645 70.5066 50.9645 70.5066C50.9645 70.5066 50.9677 70.5063 50.9702 70.5026C51.2546 70.3876 60.4775 66.6058 64.5947 68.6327C68.7771 70.6955 74.9858 92.1887 74.9858 92.1887Z" fill="#263238"/>
<path d="M60.3981 106.738L58.2929 106.496L58.2832 103.525L58.2785 100.8L60.8241 100.68L60.5998 103.887L60.3981 106.738Z" fill="#FFC3BD"/>
<path opacity="0.2" d="M60.5923 103.953L58.2766 103.583L58.2754 100.829L60.8226 100.694L60.5923 103.953Z" fill="black"/>
<path d="M70.9871 92.7446L74.9167 90.7764L75.3252 92.4414L72.3505 93.9764L70.9871 92.7446Z" fill="#000AFF"/>
<path d="M46.6903 82.0645C46.6903 82.0645 47.3375 81.9912 57.2637 80.1523C57.2637 80.1523 57.4877 92.8474 57.9585 102.309L61.016 102.408C61.016 102.408 65.4017 81.4051 64.8867 78.2348C64.3717 75.0646 60.5972 74.6348 60.5972 74.6348C60.5972 74.6348 54.0449 79.725 46.6903 82.0645Z" fill="#263238"/>
<path d="M57.3973 101.464L61.5672 101.366L60.9968 103.084L57.6141 103.115L57.3973 101.464Z" fill="#000AFF"/>
<path opacity="0.3" d="M50.9645 70.5074L45.5531 72.4339C45.5531 72.4339 48.3979 70.31 50.6149 69.3223C50.8141 69.9654 50.9645 70.5074 50.9645 70.5074Z" fill="black"/>
<path d="M38.9683 67.4162L39.1682 68.9165L49.3108 66.7662L49.0746 64.9922L38.9683 67.4162Z" fill="#263238"/>
<path opacity="0.2" d="M38.9683 67.4162L39.1682 68.9165L49.3108 66.7662L49.0746 64.9922L38.9683 67.4162Z" fill="black"/>
<path d="M42.325 66.3243L41.8202 66.418L42.2972 68.9892L42.802 68.8955L42.325 66.3243Z" fill="#263238"/>
<path d="M46.7554 65.6699L44.5414 66.1689L44.9199 67.8479L47.1339 67.3488L46.7554 65.6699Z" fill="white"/>
<path d="M48.4937 64.8019L47.9889 64.8955L48.4657 67.4667L48.9705 67.3731L48.4937 64.8019Z" fill="#263238"/>
<path opacity="0.3" d="M42.325 66.3243L41.8202 66.418L42.2972 68.9892L42.802 68.8955L42.325 66.3243Z" fill="white"/>
<path opacity="0.3" d="M48.4937 64.8019L47.9889 64.8955L48.4657 67.4667L48.9705 67.3731L48.4937 64.8019Z" fill="white"/>
<path d="M80.4933 99.8072C80.1634 99.7073 79.8179 99.6681 79.4739 99.6922C79.4739 99.6922 78.1999 99.1603 76.6611 96.626L75.3463 96.7989C74.8921 96.8666 74.5287 97.2108 74.4366 97.6604C74.4231 97.7218 74.4191 97.7847 74.4244 97.8474C74.4814 98.1629 74.5585 98.4746 74.6556 98.7803C74.909 99.7467 75.8485 101.765 75.8485 101.765L76.0634 101.678L75.3892 99.7734C75.1631 99.1258 75.9512 99.6731 76.3682 100.3C76.7852 100.927 77.376 101.535 78.7813 101.003C80.4172 100.376 81.065 100.039 80.4933 99.8072Z" fill="#263238"/>
<path d="M76.3262 95.9541C76.3262 95.9541 78.4385 99.1613 79.4739 99.6939C79.4739 99.6939 78.3113 100.623 76.7619 99.1237C74.7583 97.1846 74.4243 97.849 74.4243 97.849C74.4243 97.849 74.3942 97.0953 74.4773 96.7131C74.637 95.9767 76.3262 95.9541 76.3262 95.9541Z" fill="#FFC3BD"/>
<path d="M63.5487 110.471C63.252 110.295 62.9256 110.176 62.5857 110.117C62.5857 110.117 61.4742 109.299 60.5801 106.472L59.2619 106.328C58.8046 106.286 58.3701 106.534 58.1736 106.949C58.1461 107.005 58.127 107.066 58.1176 107.128C58.0978 107.448 58.0991 107.769 58.1207 108.089C58.1376 109.088 58.5715 111.272 58.5715 111.272L58.8008 111.238L58.5975 109.228C58.5314 108.545 59.1673 109.263 59.4236 109.971C59.6798 110.679 60.1099 111.41 61.6011 111.227C63.34 111.005 64.0493 110.831 63.5487 110.471Z" fill="#263238"/>
<path d="M60.4147 105.736C60.4147 105.736 61.706 109.353 62.586 110.116C62.586 110.116 61.2364 110.743 60.0864 108.919C58.5997 106.56 58.1179 107.127 58.1179 107.127C58.1179 107.127 58.2673 106.387 58.4386 106.035C58.7685 105.358 60.4147 105.736 60.4147 105.736Z" fill="#FFC3BD"/>
<path d="M36.7603 41.8342L34.1188 42.367C34.1188 42.367 33.7301 42.6891 33.361 42.5493C32.5726 42.2508 31.4354 41.3179 31.2907 40.9955C31.0783 40.5222 31.2925 39.1357 31.8492 38.886C32.4059 38.6363 34.3278 40.9532 34.3278 40.9532L37.1751 40.3101L36.7603 41.8342Z" fill="#FFC3BD"/>
<path d="M45.1169 50.6402C45.1169 50.6402 44.8757 42.0558 43.8823 41.6874C42.889 41.3193 35.4289 42.3446 35.4289 42.3446L35.2456 40.3842C35.2456 40.3842 43.9356 39.0484 45.6166 39.8391C47.2976 40.6298 47.8524 53.4311 47.5457 55.8965L45.1169 50.6402Z" fill="#000AFF"/>
<path opacity="0.6" d="M45.1169 50.6402C45.1169 50.6402 44.8757 42.0558 43.8823 41.6874C42.889 41.3193 35.4289 42.3446 35.4289 42.3446L35.2456 40.3842C35.2456 40.3842 43.9356 39.0484 45.6166 39.8391C47.2976 40.6298 47.8524 53.4311 47.5457 55.8965L45.1169 50.6402Z" fill="white"/>
<path d="M35.5539 42.5372L35.0358 40.3816L35.7785 40.1104L36.2516 42.6018L35.5539 42.5372Z" fill="#000AFF"/>
<path opacity="0.7" d="M35.5539 42.5372L35.0358 40.3816L35.7785 40.1104L36.2516 42.6018L35.5539 42.5372Z" fill="white"/>
<path d="M45.0767 49.5703C45.0767 49.5703 44.412 52.1829 41.1975 53.0184C37.9831 53.8536 34.4304 51.6748 34.4304 51.6748L35.1368 57.9088L39.0733 67.7297L49.1297 65.107C49.1297 65.107 48.5251 53.6807 45.0767 49.5703Z" fill="#000AFF"/>
<path opacity="0.7" d="M45.0767 49.5703C45.0767 49.5703 44.412 52.1829 41.1975 53.0184C37.9831 53.8536 34.4304 51.6748 34.4304 51.6748L35.1368 57.9088L39.0733 67.7297L49.1297 65.107C49.1297 65.107 48.5251 53.6807 45.0767 49.5703Z" fill="white"/>
<path opacity="0.6" d="M46.8234 59.9273L48.0013 59.5558C48.1319 59.5147 48.2043 59.3753 48.163 59.2447L47.4619 57.0221C47.4208 56.8914 47.2814 56.8191 47.1508 56.8601L45.9729 57.2317C45.8423 57.273 45.7699 57.4121 45.811 57.5427L46.512 59.7654C46.5537 59.8963 46.6928 59.9687 46.8234 59.9273Z" fill="#000AFF"/>
<path opacity="0.2" d="M46.584 59.2476L47.9233 58.8252L47.3455 56.9932L46.0062 57.4156L46.584 59.2476Z" fill="black"/>
<path d="M46.532 56.3433L46.2365 56.4365L46.5771 57.5162L46.8726 57.4231L46.532 56.3433Z" fill="#263238"/>
<path d="M38.2377 39.8125C35.7611 39.8141 34.1258 42.437 34.7041 46.6022C35.2824 50.7674 37.6074 51.9638 37.6074 51.9638L37.458 50.9601C37.458 50.9601 41.1286 51.9099 45.32 51.3983C45.32 51.3983 44.1237 48.0035 44.5115 44.534C44.5115 44.5334 45.2969 39.8078 38.2377 39.8125Z" fill="#263238"/>
<path opacity="0.2" d="M43.1606 52.16L44.1719 55.9145L42.3928 54.5593C42.3928 54.5593 44.1239 58.5187 44.571 60.8309C44.571 60.8309 43.0742 56.9041 41.7829 54.7516L41.0279 56.9063L37.9918 53.8156C37.9918 53.8156 40.6811 51.769 43.1606 52.16Z" fill="black"/>
<path d="M41.6802 53.3854L38.5939 53.4788C39.9609 51.7257 37.4861 48.6758 37.4861 48.6758L40.5377 49.3371C41.2654 52.3548 42.5225 52.4466 42.5225 52.4466L41.6802 53.3854Z" fill="#FFC3BD"/>
<path opacity="0.2" d="M41.3914 51.5036C39.9729 51.3761 38.9871 50.6895 38.3276 49.9642C37.9204 49.2108 37.4865 48.6758 37.4865 48.6758L40.5371 49.3377C40.7846 50.3568 41.0913 51.045 41.3914 51.5036Z" fill="black"/>
<path d="M40.5345 41.0881C43.1957 41.3099 43.9334 42.806 43.8999 45.5647C43.8579 49.0122 42.8953 51.3836 39.6288 50.3742C35.1927 49.0037 36.1149 40.7197 40.5345 41.0881Z" fill="#FFC3BD"/>
<path d="M37.2526 45.3319C37.2526 45.3319 38.6789 43.249 38.6312 41.5454C38.6312 41.5454 44.0843 39.8303 43.8985 45.2047C43.8985 45.2047 44.8098 40.4947 40.2439 40.0076C35.6853 39.5211 35.1399 46.2147 37.3362 48.4057C37.3362 48.4057 36.3688 46.6351 37.2526 45.3319Z" fill="#263238"/>
<path d="M37.6404 45.9295C37.6582 45.4997 37.2766 44.7375 36.4725 44.7582C35.6405 44.7795 35.1063 46.4398 37.1235 47.0175C37.4129 47.1005 37.6031 46.8267 37.6404 45.9295Z" fill="#FFC3BD"/>
<path d="M40.4628 41.2836C40.4628 41.2836 39.0259 45.5731 36.2735 45.2871C33.5212 45.0011 38.2377 39.8115 38.2377 39.8115C38.2377 39.8115 42.8787 38.4886 44.8996 41.063C46.9205 43.6374 43.8984 45.2028 43.8984 45.2028C43.8984 45.2028 44.3504 41.8261 40.4628 41.2836Z" fill="#263238"/>
<path d="M38.2694 44.9347C38.2378 44.9347 38.2083 44.9156 38.1964 44.8842C38.1811 44.8438 38.2011 44.7987 38.2415 44.7831C40.4334 43.9451 40.3846 41.0035 40.3839 40.9737C40.383 40.9305 40.4168 40.8945 40.4604 40.8936C40.5027 40.9008 40.5396 40.9268 40.5406 40.97C40.5412 41.0007 40.592 44.0525 38.2976 44.9297C38.2882 44.9331 38.2788 44.9347 38.2694 44.9347Z" fill="#263238"/>
<path d="M39.0296 52.2109L41.3547 53.3948L41.319 55.7552L37.9918 53.8158L39.0296 52.2109Z" fill="#000AFF"/>
<path d="M41.7111 51.7646L41.8473 53.1975L43.3654 54.8052L43.1605 52.1591L41.7111 51.7646Z" fill="#000AFF"/>
<path d="M30.9557 35.557L29.9846 33.0437C29.9846 33.0437 30.047 32.5428 29.7309 32.3066C29.0552 31.8022 27.6571 31.3452 27.3074 31.3965C26.794 31.472 25.7405 32.398 25.8295 33.0017C25.9184 33.6054 28.9054 33.9797 28.9054 33.9797L29.8941 36.7261L30.9557 35.557Z" fill="#FFC3BD"/>
<path d="M35.1363 57.9075C35.1363 57.9075 37.0319 56.4139 36.2678 53.1092L34.2472 43.9747L30.7759 34.541L29.078 35.4C29.078 35.4 31.9288 44.6166 32.1916 45.2397C32.3269 45.5605 32.8635 50.3368 33.5925 53.5434C34.2632 56.4938 35.1363 57.9075 35.1363 57.9075Z" fill="#000AFF"/>
<path opacity="0.6" d="M35.1363 57.9075C35.1363 57.9075 37.0319 56.4139 36.2678 53.1092L34.2472 43.9747L30.7759 34.541L29.078 35.4C29.078 35.4 31.9288 44.6166 32.1916 45.2397C32.3269 45.5605 32.8635 50.3368 33.5925 53.5434C34.2632 56.4938 35.1363 57.9075 35.1363 57.9075Z" fill="white"/>
<path d="M28.7818 35.1297L30.7635 34.1357L31.1961 34.798L28.877 35.8236L28.7818 35.1297Z" fill="#000AFF"/>
<path opacity="0.7" d="M28.7818 35.1297L30.7635 34.1357L31.1961 34.798L28.877 35.8236L28.7818 35.1297Z" fill="white"/>
<path opacity="0.6" d="M39.0296 52.2109L41.3547 53.3948L41.319 55.7552L37.9918 53.8158L39.0296 52.2109Z" fill="white"/>
<path opacity="0.6" d="M41.7111 51.7646L41.8473 53.1975L43.3654 54.8052L43.1605 52.1591L41.7111 51.7646Z" fill="white"/>
<path d="M107.81 47.2861H98.423V54.5783H107.81V47.2861Z" fill="white"/>
<path opacity="0.1" d="M107.81 47.2861H105.404V54.5783H107.81V47.2861Z" fill="black"/>
<path d="M97.8839 61.0183H108.496V47.7812H105.077L97.8839 51.2259V61.0183Z" fill="#000AFF"/>
<path opacity="0.2" d="M108.495 47.7812H105.077V61.0183H108.495V47.7812Z" fill="black"/>
<path opacity="0.7" d="M108.165 58.0098H105.404V60.0291H108.165V58.0098Z" fill="white"/>
<path d="M103.822 46.8867H94.4349V54.5777H103.822V46.8867Z" fill="white"/>
<path opacity="0.1" d="M103.822 46.8867H101.416V54.5777H103.822V46.8867Z" fill="black"/>
<path d="M93.8959 61.0173H104.507V47.7803H101.089L93.8959 51.2249V61.0173Z" fill="#000AFF"/>
<path opacity="0.2" d="M104.508 47.7803H101.089V61.0173H104.508V47.7803Z" fill="black"/>
<path opacity="0.7" d="M104.177 58.0098H101.416V60.0291H104.177V58.0098Z" fill="white"/>
<path d="M87.3057 111.269H89.2247L92.6728 63.2617H90.1269L87.3057 111.269Z" fill="#263238"/>
<path opacity="0.1" d="M87.3046 111.268H89.2249L92.5048 65.6451L92.6739 63.3379H90.1271L89.9893 65.6451L87.3046 111.268Z" fill="white"/>
<path opacity="0.2" d="M89.9892 65.5308H92.5047L92.6739 63.3379H90.127L89.9892 65.5308Z" fill="black"/>
<path d="M73.2215 111.269H75.1406L75.4542 63.2617H72.9083L73.2215 111.269Z" fill="#263238"/>
<path opacity="0.1" d="M72.9069 63.3379L72.957 71.0834L73.2201 111.268H75.1404L75.4036 71.0834L75.4537 63.3379H72.9069Z" fill="white"/>
<path opacity="0.2" d="M72.9069 63.3379L72.957 71.1695H75.4036L75.4537 63.3379H72.9069Z" fill="black"/>
<path d="M52.8465 111.269H54.7655L58.2137 63.2617H55.6677L52.8465 111.269Z" fill="#263238"/>
<path opacity="0.1" d="M52.8453 111.268H54.7657L58.0456 65.6451L58.2147 63.3379H55.6679L55.53 65.6451L52.8453 111.268Z" fill="white"/>
<path opacity="0.2" d="M55.53 65.5308H58.0455L58.2147 63.3379H55.6678L55.53 65.5308Z" fill="black"/>
<path d="M109.26 111.269H111.179L108.358 63.2617H105.812L109.26 111.269Z" fill="#263238"/>
<path opacity="0.1" d="M105.812 63.3379L105.982 65.6451L109.262 111.268H111.179L108.497 65.6451L108.36 63.3379H105.812Z" fill="white"/>
<path opacity="0.2" d="M108.36 63.3379H105.812L105.982 65.5308H108.497L108.36 63.3379Z" fill="black"/>
<path d="M54.3271 64.4662H109.699C110.073 64.4662 110.376 64.1629 110.376 63.7889V62.0615H53.6498V63.7889C53.6498 64.1629 53.9531 64.4662 54.3271 64.4662Z" fill="#000AFF"/>
<path opacity="0.4" d="M54.3271 64.4662H109.699C110.073 64.4662 110.376 64.1629 110.376 63.7889V62.0615H53.6498V63.7889C53.6498 64.1629 53.9531 64.4662 54.3271 64.4662Z" fill="white"/>
<path opacity="0.2" d="M53.6497 63.2627L110.376 63.2627V62.0604L53.6497 62.0604V63.2627Z" fill="black"/>
<path d="M52.46 62.3731H111.566C111.94 62.3731 112.243 62.0699 112.243 61.6958C112.243 61.3218 111.94 61.0186 111.566 61.0186H52.46C52.086 61.0186 51.7827 61.3218 51.7827 61.6958C51.7827 62.0699 52.086 62.3731 52.46 62.3731Z" fill="#000AFF"/>
<path opacity="0.4" d="M52.46 62.3731H111.566C111.94 62.3731 112.243 62.0699 112.243 61.6958C112.243 61.3218 111.94 61.0186 111.566 61.0186H52.46C52.086 61.0186 51.7827 61.3218 51.7827 61.6958C51.7827 62.0699 52.086 62.3731 52.46 62.3731Z" fill="white"/>
<path d="M98.8653 61.0142V59.9553H99.5761L98.8653 59.5422H99.3984L98.6876 59.0773H98.0144V58.5441H98.7954L98.0144 58.233V57.078H98.7954V56.3224H99.5761L98.7954 56.0605V55.5226H99.354L98.8969 55.0659L98.5013 54.6699H86.3992V55.2119H85.5994L86.4878 55.6116V56.0605H84.8551V56.8944H84.133L84.8551 57.2556V58.1885H85.3685V58.6327H86.3992V59.9553H85.8215L86.2939 60.4278V61.0192L98.8653 61.0142Z" fill="#000AFF"/>
<path opacity="0.7" d="M98.8653 61.0142V59.9553H99.5761L98.8653 59.5422H99.3984L98.6876 59.0773H98.0144V58.5441H98.7954L98.0144 58.233V57.078H98.7954V56.3224H99.5761L98.7954 56.0605V55.5226H99.354L98.8969 55.0659L98.5013 54.6699H86.3992V55.2119H85.5994L86.4878 55.6116V56.0605H84.8551V56.8944H84.133L84.8551 57.2556V58.1885H85.3685V58.6327H86.3992V59.9553H85.8215L86.2939 60.4278V61.0192L98.8653 61.0142Z" fill="white"/>
<g opacity="0.1">
<path d="M98.8653 61.0142V59.9553H99.5761L98.8653 59.5422H99.3985L98.6877 59.0773H98.0144V58.5441H98.7954L98.0144 58.233V57.078H98.7954V56.3224H99.5761L98.7954 56.0605V55.5226H99.354L98.5013 54.6699H92.1266V55.2119H91.3272L92.2156 55.6116V56.0605H90.5828V56.8944H89.8608L90.5828 57.2556V58.1885H91.0963V58.6327H92.1266V59.9553H91.5493L92.0217 60.4278V61.0192L98.8653 61.0142Z" fill="black"/>
<path d="M86.4879 56.0618H92.2156L86.4879 55.8541V56.0618Z" fill="black"/>
<path d="M86.3992 58.6323L92.1266 58.6327L92.1517 59.0323L86.3992 58.6323Z" fill="black"/>
<path d="M85.3686 58.189L91.0963 58.1885L85.3686 58.3889V58.189Z" fill="black"/>
<path d="M86.3992 59.9548L92.1266 59.9553L86.3992 59.7431V59.9548Z" fill="black"/>
<path d="M86.2939 60.4269L92.0217 60.4278L92.0216 60.6453L86.2939 60.4269Z" fill="black"/>
<path d="M84.8551 56.8942L90.5828 56.8944L84.8551 56.7103V56.8942Z" fill="black"/>
<path d="M86.3992 55.2123L92.1266 55.2119L86.3992 55.0125V55.2123Z" fill="black"/>
</g>
<g opacity="0.1">
<path d="M98.7954 55.5234H92.9856L98.7954 55.7014V55.5234Z" fill="black"/>
<path d="M92.2156 56.0616H98.7955L92.8303 56.2571L92.2156 56.0616Z" fill="black"/>
<path d="M90.5829 56.8953L98.7955 57.0789V56.8953H90.5829Z" fill="black"/>
<path d="M90.5829 57.2564H94.6453L90.5829 57.4563V57.2564Z" fill="black"/>
<path d="M98.0145 58.2335L92.1266 58.1891L98.0145 58.0559V58.2335Z" fill="black"/>
<path d="M98.0145 58.5443H92.0217L98.0145 58.7441V58.5443Z" fill="black"/>
<path d="M98.8653 59.5425H92.2156V59.7439L98.8653 59.5425Z" fill="black"/>
<path d="M98.8654 59.9563H94.0467L98.8654 60.0888V59.9563Z" fill="black"/>
</g>
<path d="M83.452 59.6436V60.6488C83.452 60.9066 83.1485 61.0122 82.8938 61.0122H62.8059C62.5481 61.0122 62.2377 60.9066 62.2377 60.6488V59.6436H83.452Z" fill="#263238"/>
<path opacity="0.4" d="M83.452 59.6436V60.6488C83.452 60.9066 83.1485 61.0122 82.8938 61.0122H62.8059C62.5481 61.0122 62.2377 60.9066 62.2377 60.6488V59.6436H83.452Z" fill="white"/>
<path opacity="0.2" d="M83.4521 59.6436V60.6488C83.4521 60.9066 83.1485 61.0122 82.8938 61.0122H69.6449C69.3871 61.0122 69.081 60.9066 69.081 60.6488V59.6436H83.4521Z" fill="black"/>
<path d="M86.8131 49.2081L84.4217 60.0546C84.344 60.4118 83.9963 60.6712 83.6451 60.6712H70.5825C70.2345 60.6712 70.0111 60.3469 70.0916 59.9898L72.48 49.226C72.5608 48.872 72.9054 48.6953 73.2566 48.6953H86.3191C86.6703 48.6953 86.8908 48.8541 86.8131 49.2081Z" fill="#263238"/>
<path opacity="0.4" d="M86.8132 49.2081L84.4217 60.0546C84.344 60.4118 83.9963 60.6712 83.6451 60.6712H71.0268C70.6759 60.6712 70.4554 60.3469 70.5327 59.9898L72.9242 49.226C73.0019 48.872 73.3496 48.6953 73.7008 48.6953H86.3195C86.6703 48.6953 86.8909 48.8541 86.8132 49.2081Z" fill="white"/>
<path opacity="0.2" d="M80.3728 54.7199V54.723C80.3728 55.6515 79.3772 56.4062 78.6473 56.4062C77.9174 56.4062 77.4848 55.6515 77.6928 54.723C77.9008 53.813 78.6273 53.0708 79.3415 53.043C79.1335 53.9715 79.5793 54.723 80.3061 54.723C80.3214 54.7227 80.3728 54.7227 80.3728 54.7199Z" fill="black"/>
</svg>
