<svg width="160" height="120" viewBox="0 0 160 120" fill="none" xmlns="http://www.w3.org/2000/svg">
<path d="M80.0001 110.657C114.242 110.657 142 109.035 142 107.036C142 105.036 114.242 103.415 80.0001 103.415C45.7585 103.415 18.0002 105.036 18.0002 107.036C18.0002 109.035 45.7585 110.657 80.0001 110.657Z" fill="#667085"/>
<path d="M43.0948 50.9004L42.7111 49.8247C42.1672 48.2997 40.6422 47.3523 39.0341 47.5403L23.7519 49.3278C21.8455 49.5507 20.481 51.2768 20.7039 53.1833L25.054 90.3735C25.2069 91.6807 26.3907 92.6166 27.6979 92.4638L82.375 86.0687C83.6823 85.9159 84.6182 84.7321 84.4654 83.4249L80.7052 51.2752C80.5524 49.968 79.3686 49.032 78.0614 49.1849L46.3111 52.8983C44.9044 53.0627 43.5706 52.2342 43.0948 50.9004Z" fill="#000AFF"/>
<path d="M44.625 34.723L27.3489 38.167L32.0936 61.9682L49.3697 58.5242L44.625 34.723Z" fill="#000AFF"/>
<path opacity="0.7" d="M44.625 34.723L27.3489 38.167L32.0936 61.9682L49.3697 58.5242L44.625 34.723Z" fill="white"/>
<g opacity="0.4">
<path d="M42.3151 40.4521L31.6728 42.5731C31.1567 42.6761 30.655 42.341 30.552 41.8249C30.4491 41.3088 30.7842 40.807 31.3003 40.7041L41.9426 38.583C42.4587 38.4801 42.9604 38.8152 43.0634 39.3313C43.1663 39.8474 42.8312 40.3491 42.3151 40.4521Z" fill="#000AFF"/>
<path d="M43.0995 44.3867L32.4573 46.5077C31.9411 46.6107 31.4394 46.2756 31.3365 45.7594C31.2335 45.2433 31.5686 44.7416 32.0847 44.6386L42.727 42.5176C43.2431 42.4146 43.7448 42.7498 43.8478 43.2659C43.9504 43.7823 43.6156 44.284 43.0995 44.3867Z" fill="#000AFF"/>
<path d="M43.8838 48.3222L33.2415 50.4433C32.7254 50.5462 32.2237 50.2111 32.1207 49.695C32.0177 49.1789 32.3529 48.6772 32.869 48.5742L43.5112 46.4532C44.0273 46.3502 44.5291 46.6853 44.632 47.2014C44.7347 47.7175 44.3999 48.2193 43.8838 48.3222Z" fill="#000AFF"/>
</g>
<path d="M69.2412 30.1376L51.7871 32.5264L55.0781 56.5727L72.5322 54.1839L69.2412 30.1376Z" fill="#000AFF"/>
<path opacity="0.7" d="M69.2412 30.1376L51.7871 32.5264L55.0781 56.5727L72.5322 54.1839L69.2412 30.1376Z" fill="white"/>
<g opacity="0.4">
<path d="M66.588 35.7123L55.8367 37.1838C55.3155 37.2551 54.8349 36.8903 54.7635 36.3691C54.6922 35.8478 55.0571 35.3672 55.5783 35.2959L66.3296 33.8243C66.8508 33.753 67.3315 34.1179 67.4028 34.6391C67.4744 35.1607 67.1095 35.6409 66.588 35.7123Z" fill="#000AFF"/>
<path d="M67.1324 39.6865L56.3811 41.1581C55.8599 41.2294 55.3793 40.8646 55.3079 40.3434C55.2366 39.8218 55.6015 39.3415 56.1227 39.2702L66.874 37.7989C67.3952 37.7276 67.8759 38.0925 67.9472 38.6137C68.0185 39.1346 67.6536 39.6152 67.1324 39.6865Z" fill="#000AFF"/>
<path d="M59.8876 44.7308L56.9253 45.1363C56.404 45.2076 55.9234 44.8427 55.8521 44.3215C55.7808 43.8 56.1457 43.3197 56.6669 43.2484L59.6292 42.8429C60.1505 42.7716 60.6311 43.1364 60.7024 43.6577C60.7737 44.1792 60.4091 44.6595 59.8876 44.7308Z" fill="#000AFF"/>
<path d="M68.2205 47.64L57.4692 49.1116C56.948 49.1829 56.4674 48.818 56.396 48.2968C56.3247 47.7752 56.6896 47.295 57.2108 47.2236L67.9621 45.7521C68.4837 45.6808 68.964 46.0456 69.0353 46.5668C69.1069 47.0881 68.742 47.5684 68.2205 47.64Z" fill="#000AFF"/>
<path d="M65.8266 52.0179L58.0136 53.0872C57.4924 53.1585 57.0118 52.7937 56.9405 52.2725C56.8692 51.7512 57.234 51.2706 57.7553 51.1993L65.5682 50.13C66.0894 50.0587 66.57 50.4235 66.6413 50.9448C66.713 51.466 66.3481 51.9466 65.8266 52.0179Z" fill="#000AFF"/>
</g>
<path d="M52.7669 33.6506L35.2177 35.1797L37.3243 59.357L54.8735 57.828L52.7669 33.6506Z" fill="#000AFF"/>
<path opacity="0.8" d="M52.7669 33.6506L35.2177 35.1797L37.3243 59.357L54.8735 57.828L52.7669 33.6506Z" fill="white"/>
<g opacity="0.4">
<path d="M49.8492 39.0906L39.0388 40.0327C38.5147 40.0784 38.0526 39.6905 38.0069 39.1661C37.9611 38.642 38.349 38.1799 38.8734 38.1342L49.6839 37.1921C50.208 37.1464 50.6701 37.5343 50.7158 38.0587C50.7612 38.5831 50.3733 39.0449 49.8492 39.0906Z" fill="#000AFF"/>
<path d="M50.1976 43.089L39.3871 44.031C38.863 44.0767 38.401 43.6889 38.3552 43.1644C38.3095 42.6403 38.6974 42.1783 39.2218 42.1325L50.0323 41.1902C50.5564 41.1445 51.0184 41.5323 51.0642 42.0568C51.1099 42.5812 50.722 43.0433 50.1976 43.089Z" fill="#000AFF"/>
<path d="M50.546 47.0877L39.7356 48.0297C39.2115 48.0755 38.7494 47.6876 38.7037 47.1631C38.6579 46.6387 39.0458 46.177 39.5703 46.1313L50.3807 45.1892C50.9048 45.1435 51.3669 45.5314 51.4126 46.0558C51.4583 46.5799 51.0701 47.042 50.546 47.0877Z" fill="#000AFF"/>
<path d="M50.8948 51.0838L40.0843 52.0258C39.5599 52.0715 39.0981 51.6837 39.0524 51.1592C39.0067 50.6351 39.3946 50.1731 39.919 50.1273L50.7294 49.1853C51.2535 49.1396 51.7156 49.5275 51.7613 50.0519C51.8067 50.576 51.4189 51.038 50.8948 51.0838Z" fill="#000AFF"/>
</g>
<path d="M74.1543 32.4702L56.5593 33.3193L57.7291 57.5598L75.3241 56.7107L74.1543 32.4702Z" fill="#000AFF"/>
<path opacity="0.8" d="M74.1543 32.4702L56.5593 33.3193L57.7291 57.5598L75.3241 56.7107L74.1543 32.4702Z" fill="white"/>
<g opacity="0.4">
<path d="M71.0292 37.7963L60.1903 38.3195C59.6646 38.3447 59.2178 37.9393 59.1926 37.4136C59.1673 36.8878 59.5728 36.4411 60.0982 36.4159L70.9371 35.8927C71.4628 35.8675 71.9092 36.2729 71.9348 36.7986C71.9604 37.324 71.5546 37.7707 71.0292 37.7963Z" fill="#000AFF"/>
<path d="M71.2227 41.8041L60.3837 42.3273C59.858 42.3525 59.4116 41.9471 59.3861 41.4214C59.3608 40.8957 59.7663 40.4489 60.292 40.4237L71.1309 39.9005C71.6566 39.8753 72.1033 40.2807 72.1286 40.8064C72.1538 41.3318 71.7484 41.7785 71.2227 41.8041Z" fill="#000AFF"/>
<path d="M63.5637 46.1908L60.577 46.3351C60.0513 46.3603 59.6046 45.9549 59.5794 45.4291C59.5541 44.9034 59.9596 44.4571 60.485 44.4315L63.4716 44.2873C63.9973 44.262 64.444 44.6675 64.4693 45.1932C64.4949 45.7189 64.0894 46.1656 63.5637 46.1908Z" fill="#000AFF"/>
<path d="M69.355 45.9125L66.3684 46.0567C65.8427 46.082 65.3959 45.6765 65.3707 45.1508C65.3454 44.6251 65.7509 44.1787 66.2766 44.1531L69.2632 44.0089C69.7889 43.9837 70.2357 44.3891 70.2609 44.9148C70.2862 45.4405 69.8807 45.8869 69.355 45.9125Z" fill="#000AFF"/>
<path d="M71.6095 49.8217L60.7706 50.3448C60.2449 50.3701 59.7985 49.9646 59.7729 49.4389C59.7476 48.9132 60.1531 48.4665 60.6788 48.4413L71.5177 47.9181C72.0434 47.8928 72.4902 48.2983 72.5154 48.824C72.5407 49.3497 72.1352 49.7961 71.6095 49.8217Z" fill="#000AFF"/>
</g>
<path d="M47.9749 51.5895L47.6948 50.5372C47.2976 49.0451 45.8766 48.1213 44.2684 48.3093L28.9863 50.0965C27.0798 50.3194 25.5705 52.0129 25.615 53.8791L26.4822 90.2833C26.5126 91.563 27.5972 92.4763 28.9044 92.3234L83.5816 85.9284C84.8888 85.7755 85.9239 84.6141 85.8935 83.3344L85.144 51.8645C85.1136 50.5848 84.0289 49.6716 82.7217 49.8244L50.9714 53.5379C49.5651 53.7023 48.3222 52.8942 47.9749 51.5895Z" fill="#000AFF"/>
<path opacity="0.3" d="M47.9749 51.5895L47.6948 50.5372C47.2976 49.0451 45.8766 48.1213 44.2684 48.3093L28.9863 50.0965C27.0798 50.3194 25.5705 52.0129 25.615 53.8791L26.4822 90.2833C26.5126 91.563 27.5972 92.4763 28.9044 92.3234L83.5816 85.9284C84.8888 85.7755 85.9239 84.6141 85.8935 83.3344L85.144 51.8645C85.1136 50.5848 84.0289 49.6716 82.7217 49.8244L50.9714 53.5379C49.5651 53.7023 48.3222 52.8942 47.9749 51.5895Z" fill="black"/>
<path d="M101.433 34.0882C101.197 35.2765 100.944 36.4446 100.66 37.6131C100.382 38.7809 100.097 39.9467 99.7868 41.1069L99.3146 42.8448L99.2525 43.0671C99.2241 43.1627 99.1924 43.2592 99.155 43.3584C99.0798 43.5566 98.9845 43.7642 98.8419 43.9758C98.7025 44.1859 98.5052 44.4072 98.2452 44.5828C97.9862 44.7593 97.6639 44.8718 97.3719 44.8981C96.7762 44.9444 96.349 44.7654 96.0008 44.5952C95.6538 44.4114 95.3708 44.201 95.1121 43.9803C94.5976 43.5304 94.1922 43.0571 93.8107 42.5132L94.6999 41.7135C95.1335 42.0432 95.6158 42.3795 96.0737 42.6258C96.302 42.7508 96.5313 42.8547 96.7321 42.911C96.9287 42.975 97.0998 42.9663 97.1017 42.9337C97.1062 42.9219 97.0704 42.9216 97.0538 42.9235C97.0352 42.9232 97.0391 42.9155 97.0541 42.8701C97.0682 42.8269 97.0915 42.7585 97.112 42.6734L97.1855 42.3214L97.5587 40.5745L98.3098 37.0826C98.5532 35.9189 98.8144 34.7524 99.068 33.6006L101.433 34.0882Z" fill="#FFC3BD"/>
<path d="M100.365 30.4338C97.6369 32.5222 97.7466 36.4573 97.7466 36.4573L102.626 37.6235C102.626 37.6235 104.123 33.667 103.515 32.2181C102.881 30.7065 101.9 29.2583 100.365 30.4338Z" fill="#263238"/>
<path d="M94.951 41.776L93.1571 39.9824L92.1895 42.7887C92.1895 42.7887 93.7039 43.6064 95.1534 42.8357L94.951 41.776Z" fill="#FFC3BD"/>
<path d="M90.6751 39.7051L90.3454 41.9227L92.1898 42.7883L93.1575 39.982L90.6751 39.7051Z" fill="#FFC3BD"/>
<path d="M116.173 104.677L113.429 104.946L110.574 98.4148L113.318 98.1465L116.173 104.677Z" fill="#FFC3BD"/>
<path d="M133.849 95.0227L131.788 96.9577L127.339 92.0677L129.4 90.1328L133.849 95.0227Z" fill="#FFC3BD"/>
<path d="M130.837 96.0297L132.386 93.2394C132.442 93.1377 132.558 93.0945 132.665 93.1354L135.049 94.043C135.297 94.137 135.404 94.4542 135.27 94.6863C134.713 95.6498 134.396 96.0869 133.715 97.3139C133.296 98.0689 132.48 99.8001 131.902 100.843C131.336 101.862 130.261 101.369 130.409 100.883C131.07 98.7039 130.946 97.491 130.759 96.5295C130.725 96.3562 130.755 96.1784 130.837 96.0297Z" fill="#263238"/>
<path d="M113.065 104.098H116.434C116.557 104.098 116.668 104.183 116.7 104.303L117.433 106.969C117.509 107.245 117.306 107.5 117.022 107.502C115.834 107.513 115.272 107.508 113.789 107.508C112.878 107.508 110.519 107.508 109.26 107.508C108.029 107.508 107.771 106.263 108.281 106.15C110.565 105.644 111.882 104.947 112.587 104.282C112.715 104.162 112.885 104.098 113.065 104.098Z" fill="#263238"/>
<path opacity="0.2" d="M110.575 98.4167L112.047 101.783H114.909L113.321 98.1484L110.575 98.4167Z" fill="black"/>
<path opacity="0.2" d="M129.402 90.1338L127.34 92.0697L129.635 94.5891L131.696 92.6533L129.402 90.1338Z" fill="black"/>
<path d="M101.188 30.0302C101.188 30.0302 99.955 30.5729 104.092 46.9448C108.653 46.5502 113.367 46.1428 115.586 45.9506C114.988 41.2893 114.733 38.4053 116.139 28.6117C116.139 28.6117 113.685 28.2961 111.203 28.3908C109.26 28.4649 107.67 28.5401 105.983 28.8423C103.759 29.241 101.188 30.0302 101.188 30.0302Z" fill="#263238"/>
<path d="M111.202 28.3105C111.202 28.3105 111.854 28.3221 112.624 28.3221C113.086 29.0364 111.582 32.1587 109.094 34.2036C108.494 32.3396 107.096 31.3078 107.096 31.3078L111.202 28.3105Z" fill="white"/>
<path d="M105.985 28.7998C105.985 28.7998 105.695 28.841 104.999 28.9997C104.536 29.714 103.752 32.7598 105.117 34.3145C105.649 32.3956 107.097 31.3065 107.097 31.3065L105.985 28.7998Z" fill="white"/>
<path d="M110.177 22.5596C109.993 24.2675 109.931 27.3727 111.203 28.3915C111.203 28.3915 109.844 29.7781 107.097 31.3085C105.099 29.9277 105.984 28.8431 105.984 28.8431C107.818 28.2339 107.649 26.8486 107.21 25.5721L110.177 22.5596Z" fill="#FFC3BD"/>
<path d="M107.05 31.3155C107.05 31.3155 108.736 29.4807 109.606 29.833C110.475 30.1854 109.804 30.8144 109.726 31.4047C109.649 31.995 110.065 33.5702 108.898 33.1612C107.731 32.7516 107.05 31.3155 107.05 31.3155Z" fill="#000AFF"/>
<path d="M106.983 31.2775C106.983 31.2775 106.188 29.8699 105.327 30.0576C104.467 30.2453 104.979 30.74 105.055 31.2692C105.153 31.9497 104.436 33.2518 105.474 32.8841C106.483 32.5262 106.983 31.2775 106.983 31.2775Z" fill="#000AFF"/>
<g opacity="0.2">
<path d="M106.545 30.9735C106.554 31.3668 106.611 31.638 106.706 31.8004C106.888 31.5104 106.982 31.2795 106.982 31.2795C106.982 31.2795 106.827 31.0039 106.576 30.7139C106.551 30.7781 106.543 30.8626 106.545 30.9735Z" fill="black"/>
<path d="M107.663 30.7215C107.303 31.0391 107.051 31.3138 107.051 31.3138C107.051 31.3138 107.165 31.5533 107.38 31.8679C107.522 31.747 107.64 31.5258 107.691 31.1411C107.721 30.9422 107.706 30.8114 107.663 30.7215Z" fill="black"/>
</g>
<path d="M107.029 31.8936C106.791 31.8946 106.644 31.6333 106.626 31.0152C106.609 30.3974 107.084 30.7405 107.084 30.7405C107.084 30.7405 107.716 30.4102 107.609 31.1617C107.526 31.7459 107.275 31.8927 107.029 31.8936Z" fill="#000AFF"/>
<path opacity="0.2" d="M108.967 23.7881L107.211 25.5698C107.316 25.872 107.404 26.1796 107.452 26.4825C108.159 26.3171 109.181 25.583 109.192 24.8273C109.198 24.4506 109.043 23.9566 108.967 23.7881Z" fill="black"/>
<path d="M107.463 16.7895C107.463 16.7895 105.55 19.4471 105.234 20.6398C103.929 21.3986 103.665 17.6551 104.357 15.3457C106.501 16.6817 107.463 16.7895 107.463 16.7895Z" fill="#263238"/>
<path d="M111.679 19.8897C110.966 22.6173 110.723 23.787 109.05 24.9302C106.533 26.6496 103.339 25.178 103.222 22.2924C103.117 19.6952 104.299 15.6706 107.218 15.1033C110.093 14.5444 112.391 17.162 111.679 19.8897Z" fill="#FFC3BD"/>
<path d="M113.163 18.8025C113.163 18.8025 111.792 21.0227 111.608 21.9884C110.613 22.665 110.193 19.7043 110.613 17.8298C111.07 16.176 113.163 18.8025 113.163 18.8025Z" fill="#263238"/>
<path d="M112.616 17.2557C112.221 17.556 111.8 16.446 112.196 15.5964C111.437 15.6434 110.526 15.1935 110.72 14.4625C109.228 14.9626 108.674 13.4437 108.846 12.3926C109.054 11.1222 110.168 10.8417 110.823 11.1772C110.836 10.6061 112.268 9.41109 112.817 10.3455C113.838 9.9854 115.481 10.0964 115.448 11.3495C116.123 11.3706 118.113 12.1336 117.379 13.9237C118.257 13.9758 118.733 15.0928 118.245 15.9357C119.37 16.5957 118.953 17.7417 118.524 18.143C118.93 18.9872 117.697 20.2423 117.044 20.0914C116.544 20.8576 115.779 21.4325 115.279 20.7792C114.308 21.4872 113.22 20.5896 113.466 19.8979C112.365 19.7166 111.254 17.901 112.616 17.2557Z" fill="#263238"/>
<path d="M114.241 14.5714C114.957 15.7667 114.898 17.1193 114.108 17.5925C113.318 18.0658 112.097 17.4803 111.381 16.2847C110.665 15.0894 110.724 13.7368 111.514 13.2635C112.304 12.7906 113.524 13.3761 114.241 14.5714Z" fill="#000AFF"/>
<path d="M107.591 16.4559C107.547 16.799 106.603 16.7101 106.332 16.1064C105.943 16.5147 105.025 16.727 104.711 16.2822C104.182 17.2783 103.118 17.0177 102.839 16.539C102.561 16.0603 102.382 15.1777 102.933 15.0035C102.612 14.7266 102.709 13.4321 103.547 13.5946C103.9 12.9048 104.864 12.1207 105.566 12.7305C105.948 12.3973 107.477 11.7457 108.105 12.9662C108.616 12.5441 109.52 12.8303 109.737 13.4782C110.733 13.2176 111.164 13.9725 111.16 14.3806C111.868 14.574 111.915 15.7952 111.47 16.0565C111.637 16.6733 111.549 17.3346 110.899 17.2802C110.774 18.1097 109.661 18.2386 109.398 17.7861C108.691 18.26 107.216 17.4545 107.591 16.4559Z" fill="#263238"/>
<path d="M105.909 14.1073C106.718 12.9865 109.668 12.5219 112.223 14.2007C114.526 15.7135 114.376 19.2249 112.546 19.0382C110.716 18.8514 108.904 16.7035 108.904 16.7035L105.909 14.1073Z" fill="#263238"/>
<path d="M111.905 22.353C111.637 22.8724 111.153 23.2193 110.694 23.3574C110.002 23.5656 109.642 22.9504 109.822 22.2901C109.984 21.6956 110.54 20.8709 111.24 20.9518C111.929 21.0318 112.212 21.7596 111.905 22.353Z" fill="#FFC3BD"/>
<path d="M104.092 46.9459C104.092 46.9459 100.203 64.1485 102.799 76.2765C104.538 84.3993 110.808 100.808 110.808 100.808L115.711 100.682C115.711 100.682 110.964 83.462 109.983 76.6902C108.304 65.1063 112.508 46.2178 112.508 46.2178L104.092 46.9459Z" fill="#000AFF"/>
<path opacity="0.2" d="M108.575 50.4189L111.027 54.285C110.403 58.2939 109.783 63.3082 109.624 68.1329C106.177 61.9617 107.809 53.6864 108.575 50.4189Z" fill="black"/>
<path d="M110.117 101.061L116.173 100.907L115.823 99.0459L109.644 99.3388L110.117 101.061Z" fill="#263238"/>
<path d="M106.605 46.7611C106.605 46.7611 108.886 65.0047 113.832 74.9648C117.826 83.0096 128.485 94.4615 128.485 94.4615L131.21 91.6543C131.21 91.6543 124.01 79.2082 121.042 73.8642C113.763 60.7607 119.712 50.7611 115.586 45.9502L106.605 46.7611Z" fill="#000AFF"/>
<path d="M128.208 94.8379L131.725 91.4096L130.558 89.8223L126.829 93.5447L128.208 94.8379Z" fill="#263238"/>
<path d="M115.7 45.2627L116.307 46.2466C116.354 46.323 116.267 46.4126 116.134 46.4241L104.08 47.4665C103.976 47.4755 103.886 47.4323 103.874 47.3677L103.681 46.348C103.668 46.2773 103.753 46.2092 103.866 46.1993L115.505 45.1926C115.591 45.185 115.669 45.2134 115.7 45.2627Z" fill="#000AFF"/>
<path opacity="0.5" d="M115.7 45.2627L116.307 46.2466C116.354 46.323 116.267 46.4126 116.134 46.4241L104.08 47.4665C103.976 47.4755 103.886 47.4323 103.874 47.3677L103.681 46.348C103.668 46.2773 103.753 46.2092 103.866 46.1993L115.505 45.1926C115.591 45.185 115.669 45.2134 115.7 45.2627Z" fill="white"/>
<path d="M114.248 46.6978L114.56 46.6709C114.622 46.6655 114.667 46.6294 114.659 46.5907L114.397 45.2665C114.389 45.2278 114.332 45.2003 114.27 45.2058L113.958 45.2326C113.896 45.2381 113.852 45.2742 113.859 45.3129L114.121 46.6371C114.129 46.6761 114.186 46.7032 114.248 46.6978Z" fill="#000AFF"/>
<path d="M109.607 47.1011L109.919 47.0743C109.981 47.0688 110.025 47.0327 110.017 46.994L109.755 45.6698C109.748 45.6311 109.691 45.6036 109.629 45.6091L109.317 45.6359C109.255 45.6414 109.211 45.6775 109.218 45.7162L109.48 47.0404C109.488 47.0791 109.545 47.1066 109.607 47.1011Z" fill="#000AFF"/>
<path d="M106.594 57.719L108.444 37.634L104.495 34.6099L92.4384 33.499L90.3452 56.2222L106.594 57.719Z" fill="#000AFF"/>
<path opacity="0.8" d="M106.594 57.719L108.444 37.634L104.495 34.6099L92.4384 33.499L90.3452 56.2222L106.594 57.719Z" fill="white"/>
<path d="M108.444 37.6334L104.495 34.6094L105.53 38.2289L108.444 37.6334Z" fill="#000AFF"/>
<path d="M91.7579 59.7334C94.4772 59.7334 96.6817 57.5289 96.6817 54.8096C96.6817 52.0902 94.4772 49.8857 91.7579 49.8857C89.0385 49.8857 86.834 52.0902 86.834 54.8096C86.834 57.5289 89.0385 59.7334 91.7579 59.7334Z" fill="#000AFF"/>
<path d="M94.194 57.8916C95.8958 56.5472 96.1855 54.0778 94.8411 52.376C93.4968 50.6742 91.0274 50.3845 89.3256 51.7289C87.6238 53.0733 87.3341 55.5426 88.6785 57.2444C90.0228 58.9462 92.4922 59.2359 94.194 57.8916Z" fill="white"/>
<path d="M94.1842 54.4661L92.4517 54.2631L92.655 52.5303L91.4127 52.3848L91.2097 54.1173L89.4769 53.9139L89.3314 55.1559L91.0639 55.3593L90.8605 57.0918L92.1025 57.2376L92.3059 55.5051L94.0384 55.7081L94.1842 54.4661Z" fill="#000AFF"/>
<path opacity="0.4" d="M105.495 41.7949C105.427 42.5343 104.773 43.0782 104.034 43.0101L95.2397 42.2011C94.5004 42.1329 93.9565 41.4787 94.0243 40.7397C94.0924 40.0004 94.7466 39.4565 95.4859 39.5243L104.28 40.3333C105.019 40.4014 105.563 41.0556 105.495 41.7949Z" fill="#000AFF"/>
<path opacity="0.4" d="M102.5 45.4254C102.432 46.1647 101.778 46.7086 101.039 46.6405L94.8931 46.0751C94.1541 46.007 93.6099 45.3528 93.678 44.6135C93.7461 43.8742 94.4004 43.3302 95.1393 43.3983L101.285 43.9637C102.024 44.0318 102.568 44.6861 102.5 45.4254Z" fill="#000AFF"/>
<path d="M116.627 31.2275C116.843 31.4392 116.994 31.6033 117.164 31.7926C117.328 31.978 117.484 32.1654 117.637 32.3557C117.942 32.7356 118.231 33.1254 118.504 33.5254C119.041 34.3315 119.523 35.1745 119.935 36.0541C120.352 36.9313 120.674 37.8541 120.931 38.7943C121.054 39.2662 121.166 39.7414 121.246 40.2236C121.357 40.7298 121.4 41.5494 121.028 42.2449C120.848 42.5925 120.586 42.8822 120.313 43.0961C120.039 43.312 119.754 43.4616 119.478 43.5758C118.924 43.799 118.398 43.8943 117.889 43.9537C116.873 44.0599 115.913 44.0219 114.97 43.9157C113.087 43.7024 111.289 43.3043 109.502 42.7536L109.795 41.5938C110.664 41.7371 111.56 41.8724 112.445 41.9635C113.33 42.0658 114.216 42.139 115.089 42.1582C115.96 42.1704 116.829 42.1595 117.617 42.0198C118.007 41.951 118.377 41.8477 118.659 41.7086C118.946 41.5676 119.096 41.4058 119.131 41.291C119.153 41.2299 119.169 41.1618 119.17 41.0592C119.171 41.0087 119.164 40.9492 119.158 40.8875C119.144 40.8216 119.137 40.7634 119.108 40.6464C119.018 40.2348 118.9 39.829 118.774 39.4268C118.516 38.6222 118.178 37.8449 117.801 37.0854C117.424 36.326 116.983 35.5953 116.496 34.8995C116.256 34.5487 116.004 34.2062 115.74 33.8772C115.609 33.7122 115.474 33.5507 115.337 33.3943C115.208 33.2421 115.052 33.0694 114.946 32.9601L116.627 31.2275Z" fill="#FFC3BD"/>
<path d="M110.522 41.7704L108.28 40.5827L108.18 43.5496C108.18 43.5496 109.763 43.6496 110.692 42.9212L110.522 41.7704Z" fill="#FFC3BD"/>
<path d="M106.913 40.7599L107.25 42.9765L108.18 43.5496L108.28 40.5827L106.913 40.7599Z" fill="#FFC3BD"/>
<path d="M116.138 28.6113C117.547 28.8604 119.522 32.902 119.522 32.902L115.97 36.1144C115.97 36.1144 113.145 33.0331 113.296 31.197C113.423 29.6381 114.343 28.2938 116.138 28.6113Z" fill="#263238"/>
<path d="M130.293 97.528C130.33 97.528 130.366 97.5216 130.403 97.5094C130.74 97.3959 130.961 96.772 131.063 96.4104C131.069 96.389 131.062 96.3659 131.044 96.3519C131.027 96.3378 131.003 96.3356 130.983 96.3458C130.881 96.3995 129.98 96.8811 129.951 97.2363C129.947 97.2907 129.96 97.3691 130.047 97.4352C130.128 97.497 130.211 97.528 130.293 97.528ZM130.917 96.5098C130.76 97.0087 130.559 97.339 130.367 97.4036C130.284 97.4314 130.202 97.4122 130.114 97.346C130.063 97.3077 130.06 97.2706 130.062 97.2456C130.08 97.0275 130.608 96.6847 130.917 96.5098Z" fill="#000AFF"/>
<path d="M130.153 96.6508C130.473 96.6508 130.865 96.5488 131.037 96.4436C131.054 96.4334 131.065 96.4145 131.064 96.3947C131.064 96.3749 131.053 96.3566 131.035 96.347C131.005 96.3304 130.292 95.9384 129.909 96.0746C129.808 96.1098 129.738 96.1769 129.698 96.2735C129.637 96.4241 129.704 96.5111 129.75 96.5495C129.835 96.622 129.984 96.6508 130.153 96.6508ZM130.885 96.3953C130.58 96.5255 129.989 96.6054 129.822 96.4644C129.794 96.4407 129.766 96.4027 129.802 96.3154C129.829 96.2489 129.876 96.2044 129.945 96.1801C130.207 96.0867 130.682 96.2956 130.885 96.3953Z" fill="#000AFF"/>
<path d="M111.57 104.643C111.893 104.643 112.245 104.58 112.49 104.526C112.513 104.521 112.53 104.502 112.533 104.478C112.536 104.454 112.523 104.431 112.501 104.421C112.363 104.356 111.14 103.791 110.832 103.999C110.793 104.026 110.747 104.077 110.753 104.172C110.76 104.304 110.816 104.41 110.919 104.488C111.072 104.603 111.311 104.643 111.57 104.643ZM112.297 104.451C111.934 104.519 111.263 104.608 110.986 104.399C110.91 104.34 110.87 104.265 110.864 104.166C110.861 104.121 110.879 104.102 110.894 104.092C111.067 103.975 111.79 104.228 112.297 104.451Z" fill="#000AFF"/>
<path d="M112.478 104.528C112.49 104.528 112.503 104.523 112.514 104.514C112.53 104.501 112.537 104.479 112.532 104.459C112.52 104.407 112.243 103.202 111.579 103.279C111.413 103.299 111.368 103.381 111.359 103.447C111.317 103.754 112.088 104.373 112.456 104.523C112.463 104.526 112.47 104.528 112.478 104.528ZM111.639 103.387C112.063 103.387 112.31 104.089 112.392 104.37C111.994 104.161 111.443 103.658 111.47 103.462C111.472 103.448 111.478 103.404 111.593 103.39C111.608 103.388 111.624 103.387 111.639 103.387Z" fill="#000AFF"/>
</svg>
