<svg width="28" height="28" viewBox="0 0 28 28" fill="none" xmlns="http://www.w3.org/2000/svg">
<rect width="28" height="28" rx="14" fill="#334054"/>
<path fill-rule="evenodd" clip-rule="evenodd" d="M19.2637 19.174C18.5525 16.9249 16.6415 15.6362 14.0186 15.6362H13.9997C11.3698 15.6215 9.44901 16.9193 8.73641 19.174L8.65381 19.4358L8.88761 19.5786C10.2582 20.4144 11.9676 20.8379 13.9668 20.8379C13.9892 20.8379 14.0116 20.8379 14.0333 20.8379C16.0605 20.8379 17.7223 20.4256 19.1125 19.5786L19.3463 19.4358L19.2637 19.174Z" fill="white"/>
<path fill-rule="evenodd" clip-rule="evenodd" d="M14.0001 14.0765C15.9062 14.0765 17.4574 12.526 17.4574 10.6199C17.4574 8.7131 15.9062 7.1626 14.0001 7.1626C12.094 7.1626 10.5435 8.7131 10.5435 10.6199C10.5435 12.526 12.094 14.0765 14.0001 14.0765Z" fill="white"/>
</svg>
